<svg width="1440" height="904" viewBox="0 0 1440 904" fill="none" xmlns="http://www.w3.org/2000/svg">
<path d="M0 0H1440V470.88H0V0ZM0 820L60 807.07C120 794.139 240 768.279 360 761.813C480 755.348 600 768.279 720 735.953C840 703.627 960 626.045 1080 613.114C1200 600.184 1320 651.905 1380 677.766L1440 703.627V470.88H1380C1320 470.88 1200 470.88 1080 470.88C960 470.88 840 470.88 720 470.88C600 470.88 480 470.88 360 470.88C240 470.88 120 470.88 60 470.88H0V820Z" fill="#184C99"/>
<path fill-rule="evenodd" clip-rule="evenodd" d="M0 0H1440V470.88H0V0ZM0 820L60 807.07C120 794.139 240 768.279 360 761.813C480 755.348 600 768.279 720 735.953C840 703.627 960 626.045 1080 613.114C1200 600.184 1320 651.905 1380 677.766L1440 703.627V470.88H1380C1320 470.88 1200 470.88 1080 470.88C960 470.88 840 470.88 720 470.88C600 470.88 480 470.88 360 470.88C240 470.88 120 470.88 60 470.88H0V820Z" fill="#184C99"/>
</svg>
