<svg width="16" height="16" viewBox="0 0 16 16" fill="none" xmlns="http://www.w3.org/2000/svg">
<path d="M0.5 9.90039C0.632608 9.90039 0.759785 9.95307 0.853553 10.0468C0.947322 10.1406 1 10.2678 1 10.4004V12.9004C1 13.1656 1.10536 13.42 1.29289 13.6075C1.48043 13.795 1.73478 13.9004 2 13.9004H14C14.2652 13.9004 14.5196 13.795 14.7071 13.6075C14.8946 13.42 15 13.1656 15 12.9004V10.4004C15 10.2678 15.0527 10.1406 15.1464 10.0468C15.2402 9.95307 15.3674 9.90039 15.5 9.90039C15.6326 9.90039 15.7598 9.95307 15.8536 10.0468C15.9473 10.1406 16 10.2678 16 10.4004V12.9004C16 13.4308 15.7893 13.9395 15.4142 14.3146C15.0391 14.6897 14.5304 14.9004 14 14.9004H2C1.46957 14.9004 0.960859 14.6897 0.585786 14.3146C0.210714 13.9395 0 13.4308 0 12.9004V10.4004C0 10.2678 0.0526784 10.1406 0.146447 10.0468C0.240215 9.95307 0.367392 9.90039 0.5 9.90039Z" fill="#737373"/>
<path d="M7.64602 11.854C7.69247 11.9006 7.74764 11.9375 7.80839 11.9627C7.86913 11.9879 7.93425 12.0009 8.00002 12.0009C8.06579 12.0009 8.13091 11.9879 8.19165 11.9627C8.2524 11.9375 8.30758 11.9006 8.35402 11.854L11.354 8.854C11.4479 8.76011 11.5007 8.63278 11.5007 8.5C11.5007 8.36722 11.4479 8.23989 11.354 8.146C11.2601 8.05211 11.1328 7.99937 11 7.99937C10.8672 7.99937 10.7399 8.05211 10.646 8.146L8.50002 10.293V1.5C8.50002 1.36739 8.44734 1.24021 8.35358 1.14645C8.25981 1.05268 8.13263 1 8.00002 1C7.86741 1 7.74024 1.05268 7.64647 1.14645C7.5527 1.24021 7.50002 1.36739 7.50002 1.5V10.293L5.35402 8.146C5.26013 8.05211 5.1328 7.99937 5.00002 7.99937C4.86725 7.99937 4.73991 8.05211 4.64602 8.146C4.55213 8.23989 4.49939 8.36722 4.49939 8.5C4.49939 8.63278 4.55213 8.76011 4.64602 8.854L7.64602 11.854Z" fill="#737373"/>
</svg>
