<svg width="1440" height="912" viewBox="0 0 1440 912" fill="none" xmlns="http://www.w3.org/2000/svg">
<g clip-path="url(#clip0_1_72)" filter="url(#filter0_d_1_72)">
<rect width="1440" height="904" fill="#252B42"/>
<path d="M0 0H1440V470.88H0V0ZM0 820L60 807.07C120 794.139 240 768.279 360 761.813C480 755.348 600 768.279 720 735.953C840 703.627 960 626.045 1080 613.114C1200 600.184 1320 651.905 1380 677.766L1440 703.627V470.88H1380C1320 470.88 1200 470.88 1080 470.88C960 470.88 840 470.88 720 470.88C600 470.88 480 470.88 360 470.88C240 470.88 120 470.88 60 470.88H0V820Z" fill="#184C99"/>
<path fill-rule="evenodd" clip-rule="evenodd" d="M0 0H1440V470.88H0V0ZM0 820L60 807.07C120 794.139 240 768.279 360 761.813C480 755.348 600 768.279 720 735.953C840 703.627 960 626.045 1080 613.114C1200 600.184 1320 651.905 1380 677.766L1440 703.627V470.88H1380C1320 470.88 1200 470.88 1080 470.88C960 470.88 840 470.88 720 470.88C600 470.88 480 470.88 360 470.88C240 470.88 120 470.88 60 470.88H0V820Z" fill="#184C99"/>
<g clip-path="url(#clip1_1_72)">
<path d="M204.408 55H197.064V38.224H203.592C204.728 38.224 205.704 38.36 206.52 38.632C207.352 38.904 207.976 39.272 208.392 39.736C209.144 40.6 209.52 41.576 209.52 42.664C209.52 43.976 209.096 44.952 208.248 45.592C207.96 45.816 207.76 45.96 207.648 46.024C207.536 46.072 207.336 46.16 207.048 46.288C208.088 46.512 208.912 46.984 209.52 47.704C210.144 48.408 210.456 49.288 210.456 50.344C210.456 51.512 210.056 52.544 209.256 53.44C208.328 54.48 206.712 55 204.408 55ZM200.808 45.016H202.584C203.624 45.016 204.392 44.904 204.888 44.68C205.4 44.456 205.656 43.976 205.656 43.24C205.656 42.488 205.424 41.992 204.96 41.752C204.496 41.512 203.712 41.392 202.608 41.392H200.808V45.016ZM200.808 51.832H203.376C204.448 51.832 205.248 51.704 205.776 51.448C206.32 51.176 206.592 50.656 206.592 49.888C206.592 49.104 206.304 48.592 205.728 48.352C205.168 48.096 204.264 47.968 203.016 47.968H200.808V51.832ZM220.143 45.256C219.071 45.256 218.271 45.64 217.743 46.408C217.215 47.16 216.951 48.16 216.951 49.408V55H213.351V42.088H216.951V43.792C217.415 43.264 217.991 42.816 218.679 42.448C219.383 42.08 220.095 41.888 220.815 41.872L220.839 45.256H220.143ZM234.169 55H230.785V53.44C229.857 54.608 228.705 55.192 227.329 55.192C225.969 55.192 224.825 54.8 223.897 54.016C222.969 53.216 222.505 52.16 222.505 50.848C222.505 49.52 222.985 48.528 223.945 47.872C224.905 47.216 226.217 46.888 227.881 46.888H230.569V46.816C230.569 45.44 229.841 44.752 228.385 44.752C227.761 44.752 227.097 44.88 226.393 45.136C225.705 45.376 225.121 45.68 224.641 46.048L223.033 43.72C224.729 42.488 226.665 41.872 228.841 41.872C230.409 41.872 231.689 42.264 232.681 43.048C233.673 43.832 234.169 45.072 234.169 46.768V55ZM230.545 50.08V49.456H228.289C226.849 49.456 226.129 49.904 226.129 50.8C226.129 51.264 226.297 51.624 226.633 51.88C226.985 52.12 227.481 52.24 228.121 52.24C228.761 52.24 229.321 52.048 229.801 51.664C230.297 51.264 230.545 50.736 230.545 50.08ZM241.151 47.8V55H237.551V42.088H241.151V43.528C242.239 42.424 243.463 41.872 244.823 41.872C246.183 41.872 247.319 42.352 248.231 43.312C249.159 44.272 249.623 45.552 249.623 47.152V55H246.023V47.704C246.023 45.72 245.295 44.728 243.839 44.728C243.119 44.728 242.487 44.992 241.943 45.52C241.415 46.032 241.151 46.792 241.151 47.8ZM258.139 55.192C256.619 55.192 255.259 54.544 254.059 53.248C252.859 51.952 252.259 50.344 252.259 48.424C252.259 46.504 252.843 44.936 254.011 43.72C255.179 42.488 256.547 41.872 258.115 41.872C259.683 41.872 260.963 42.424 261.955 43.528V37.192H265.555V55H261.955V53.296C260.947 54.56 259.675 55.192 258.139 55.192ZM255.883 48.568C255.883 49.608 256.195 50.464 256.819 51.136C257.443 51.792 258.171 52.12 259.003 52.12C259.835 52.12 260.539 51.792 261.115 51.136C261.707 50.464 262.003 49.608 262.003 48.568C262.003 47.512 261.707 46.64 261.115 45.952C260.539 45.248 259.827 44.896 258.979 44.896C258.131 44.896 257.403 45.248 256.795 45.952C256.187 46.656 255.883 47.528 255.883 48.568ZM281.159 38.224H284.903V55H281.159L273.167 44.488V55H269.423V38.224H272.927L281.159 49.024V38.224ZM299.749 55H296.365V53.44C295.437 54.608 294.285 55.192 292.909 55.192C291.549 55.192 290.405 54.8 289.477 54.016C288.549 53.216 288.085 52.16 288.085 50.848C288.085 49.52 288.565 48.528 289.525 47.872C290.485 47.216 291.797 46.888 293.461 46.888H296.149V46.816C296.149 45.44 295.421 44.752 293.965 44.752C293.341 44.752 292.677 44.88 291.973 45.136C291.285 45.376 290.701 45.68 290.221 46.048L288.613 43.72C290.309 42.488 292.245 41.872 294.421 41.872C295.989 41.872 297.269 42.264 298.261 43.048C299.253 43.832 299.749 45.072 299.749 46.768V55ZM296.125 50.08V49.456H293.869C292.429 49.456 291.709 49.904 291.709 50.8C291.709 51.264 291.877 51.624 292.213 51.88C292.565 52.12 293.061 52.24 293.701 52.24C294.341 52.24 294.901 52.048 295.381 51.664C295.877 51.264 296.125 50.736 296.125 50.08ZM314.987 48.04V55H311.363V47.944C311.363 46.92 311.203 46.168 310.883 45.688C310.579 45.208 310.075 44.968 309.371 44.968C308.683 44.968 308.067 45.232 307.523 45.76C306.995 46.272 306.731 47.032 306.731 48.04V55H303.131V42.088H306.731V43.552C307.723 42.432 308.859 41.872 310.139 41.872C310.955 41.872 311.691 42.112 312.347 42.592C313.019 43.072 313.523 43.656 313.859 44.344C314.355 43.56 315.019 42.952 315.851 42.52C316.699 42.088 317.547 41.872 318.395 41.872C319.915 41.872 321.139 42.328 322.067 43.24C322.995 44.136 323.459 45.44 323.459 47.152V55H319.835V47.944C319.835 45.96 319.107 44.968 317.651 44.968C316.931 44.968 316.307 45.232 315.779 45.76C315.251 46.272 314.987 47.032 314.987 48.04ZM338.016 53.128C336.56 54.504 334.848 55.192 332.88 55.192C330.928 55.192 329.312 54.592 328.032 53.392C326.752 52.176 326.112 50.552 326.112 48.52C326.112 46.488 326.76 44.872 328.056 43.672C329.368 42.472 330.912 41.872 332.688 41.872C334.464 41.872 335.968 42.408 337.2 43.48C338.448 44.552 339.072 46.024 339.072 47.896V49.816H329.664C329.776 50.52 330.144 51.096 330.768 51.544C331.392 51.992 332.096 52.216 332.88 52.216C334.144 52.216 335.184 51.792 336 50.944L338.016 53.128ZM335.424 47.248C335.344 46.48 335.056 45.888 334.56 45.472C334.064 45.056 333.456 44.848 332.736 44.848C332.032 44.848 331.384 45.064 330.792 45.496C330.2 45.928 329.856 46.512 329.76 47.248H335.424Z" fill="white"/>
<g clip-path="url(#clip2_1_72)">
<g clip-path="url(#clip3_1_72)">
<g clip-path="url(#clip4_1_72)">
<path d="M430.391 40.214H432.575V50H430.391V46.15H426.499V50H424.315V40.214H426.499V44.302H430.391V40.214ZM436.649 46.234C436.649 46.85 436.822 47.354 437.167 47.746C437.522 48.1287 437.97 48.32 438.511 48.32C439.062 48.32 439.51 48.1287 439.855 47.746C440.21 47.354 440.387 46.85 440.387 46.234C440.387 45.618 440.21 45.114 439.855 44.722C439.51 44.33 439.062 44.134 438.511 44.134C437.97 44.134 437.522 44.33 437.167 44.722C436.822 45.114 436.649 45.618 436.649 46.234ZM442.501 46.234C442.501 47.326 442.123 48.2453 441.367 48.992C440.611 49.7387 439.659 50.112 438.511 50.112C437.373 50.112 436.425 49.7387 435.669 48.992C434.913 48.2453 434.535 47.326 434.535 46.234C434.535 45.142 434.913 44.2227 435.669 43.476C436.425 42.72 437.373 42.342 438.511 42.342C439.659 42.342 440.611 42.72 441.367 43.476C442.123 44.2227 442.501 45.142 442.501 46.234ZM451.177 45.94V50H449.063V45.884C449.063 45.2867 448.97 44.848 448.783 44.568C448.606 44.288 448.312 44.148 447.901 44.148C447.5 44.148 447.14 44.302 446.823 44.61C446.515 44.9087 446.361 45.352 446.361 45.94V50H444.261V42.468H446.361V43.322C446.94 42.6687 447.602 42.342 448.349 42.342C448.825 42.342 449.254 42.482 449.637 42.762C450.029 43.042 450.323 43.3827 450.519 43.784C450.808 43.3267 451.196 42.972 451.681 42.72C452.176 42.468 452.67 42.342 453.165 42.342C454.052 42.342 454.766 42.608 455.307 43.14C455.848 43.6627 456.119 44.4233 456.119 45.422V50H454.005V45.884C454.005 44.7267 453.58 44.148 452.731 44.148C452.311 44.148 451.947 44.302 451.639 44.61C451.331 44.9087 451.177 45.352 451.177 45.94ZM464.753 48.908C463.903 49.7107 462.905 50.112 461.757 50.112C460.618 50.112 459.675 49.762 458.929 49.062C458.182 48.3527 457.809 47.4053 457.809 46.22C457.809 45.0347 458.187 44.092 458.943 43.392C459.708 42.692 460.609 42.342 461.645 42.342C462.681 42.342 463.558 42.6547 464.277 43.28C465.005 43.9053 465.369 44.764 465.369 45.856V46.976H459.881C459.946 47.3867 460.161 47.7227 460.525 47.984C460.889 48.2453 461.299 48.376 461.757 48.376C462.494 48.376 463.101 48.1287 463.577 47.634L464.753 48.908ZM463.241 45.478C463.194 45.03 463.026 44.6847 462.737 44.442C462.447 44.1993 462.093 44.078 461.673 44.078C461.262 44.078 460.884 44.204 460.539 44.456C460.193 44.708 459.993 45.0487 459.937 45.478H463.241Z" fill="white"/>
</g>
</g>
<g clip-path="url(#clip5_1_72)">
<g clip-path="url(#clip6_1_72)">
<path d="M492.159 40.214C493.661 40.214 494.753 40.508 495.435 41.096C496.125 41.6747 496.471 42.5707 496.471 43.784C496.471 44.988 496.116 45.87 495.407 46.43C494.707 46.99 493.633 47.27 492.187 47.27H490.885V50H488.701V40.214H492.159ZM492.355 45.38C493.083 45.38 493.577 45.2353 493.839 44.946C494.1 44.6473 494.231 44.218 494.231 43.658C494.231 43.0887 494.058 42.6873 493.713 42.454C493.377 42.2113 492.849 42.09 492.131 42.09H490.885V45.38H492.355ZM502.127 44.316C501.502 44.316 501.035 44.54 500.727 44.988C500.419 45.4267 500.265 46.01 500.265 46.738V50H498.165V42.468H500.265V43.462C500.536 43.154 500.872 42.8927 501.273 42.678C501.684 42.4633 502.099 42.3513 502.519 42.342L502.533 44.316H502.127ZM505.692 46.234C505.692 46.85 505.864 47.354 506.21 47.746C506.564 48.1287 507.012 48.32 507.554 48.32C508.104 48.32 508.552 48.1287 508.898 47.746C509.252 47.354 509.43 46.85 509.43 46.234C509.43 45.618 509.252 45.114 508.898 44.722C508.552 44.33 508.104 44.134 507.554 44.134C507.012 44.134 506.564 44.33 506.21 44.722C505.864 45.114 505.692 45.618 505.692 46.234ZM511.544 46.234C511.544 47.326 511.166 48.2453 510.41 48.992C509.654 49.7387 508.702 50.112 507.554 50.112C506.415 50.112 505.468 49.7387 504.712 48.992C503.956 48.2453 503.578 47.326 503.578 46.234C503.578 45.142 503.956 44.2227 504.712 43.476C505.468 42.72 506.415 42.342 507.554 42.342C508.702 42.342 509.654 42.72 510.41 43.476C511.166 44.2227 511.544 45.142 511.544 46.234ZM516.314 50.112C515.427 50.112 514.634 49.734 513.934 48.978C513.234 48.222 512.884 47.284 512.884 46.164C512.884 45.044 513.224 44.1293 513.906 43.42C514.587 42.7013 515.385 42.342 516.3 42.342C517.214 42.342 517.961 42.664 518.54 43.308V39.612H520.64V50H518.54V49.006C517.952 49.7433 517.21 50.112 516.314 50.112ZM514.998 46.248C514.998 46.8547 515.18 47.354 515.544 47.746C515.908 48.1287 516.332 48.32 516.818 48.32C517.303 48.32 517.714 48.1287 518.05 47.746C518.395 47.354 518.568 46.8547 518.568 46.248C518.568 45.632 518.395 45.1233 518.05 44.722C517.714 44.3113 517.298 44.106 516.804 44.106C516.309 44.106 515.884 44.3113 515.53 44.722C515.175 45.1327 514.998 45.6413 514.998 46.248ZM527.686 46.528V42.468H529.8V50H527.686V49.006C527.163 49.7433 526.486 50.112 525.656 50.112C524.834 50.112 524.144 49.8553 523.584 49.342C523.024 48.8193 522.744 48.0493 522.744 47.032V42.468H524.858V46.57C524.858 47.7273 525.282 48.306 526.132 48.306C526.552 48.306 526.916 48.1567 527.224 47.858C527.532 47.55 527.686 47.1067 527.686 46.528ZM535.595 48.25C536.295 48.25 536.925 47.9 537.485 47.2L538.731 48.6C537.76 49.608 536.71 50.112 535.581 50.112C534.452 50.112 533.495 49.7573 532.711 49.048C531.936 48.3293 531.549 47.396 531.549 46.248C531.549 45.0907 531.941 44.1527 532.725 43.434C533.518 42.706 534.456 42.342 535.539 42.342C536.08 42.342 536.626 42.454 537.177 42.678C537.737 42.902 538.227 43.2333 538.647 43.672L537.555 45.1C537.312 44.8107 537.014 44.5867 536.659 44.428C536.314 44.2693 535.968 44.19 535.623 44.19C535.072 44.19 534.596 44.372 534.195 44.736C533.803 45.0907 533.607 45.59 533.607 46.234C533.607 46.8687 533.803 47.3633 534.195 47.718C534.596 48.0727 535.063 48.25 535.595 48.25ZM542.837 43.98V47.354C542.837 47.6433 542.912 47.872 543.061 48.04C543.211 48.1987 543.388 48.278 543.593 48.278C543.985 48.278 544.317 48.1007 544.587 47.746L545.371 49.216C544.718 49.8133 544.027 50.112 543.299 50.112C542.581 50.112 541.969 49.874 541.465 49.398C540.971 48.922 540.723 48.2733 540.723 47.452V43.98H539.841V42.468H540.723V40.214H542.837V42.468H544.657V43.98H542.837Z" fill="white"/>
</g>
</g>
<g clip-path="url(#clip7_1_72)">
<g clip-path="url(#clip8_1_72)">
<path d="M572.145 40.214C573.648 40.214 574.74 40.508 575.421 41.096C576.112 41.6747 576.457 42.5707 576.457 43.784C576.457 44.988 576.102 45.87 575.393 46.43C574.693 46.99 573.62 47.27 572.173 47.27H570.871V50H568.687V40.214H572.145ZM572.341 45.38C573.069 45.38 573.564 45.2353 573.825 44.946C574.086 44.6473 574.217 44.218 574.217 43.658C574.217 43.0887 574.044 42.6873 573.699 42.454C573.363 42.2113 572.836 42.09 572.117 42.09H570.871V45.38H572.341ZM582.114 44.316C581.488 44.316 581.022 44.54 580.714 44.988C580.406 45.4267 580.252 46.01 580.252 46.738V50H578.152V42.468H580.252V43.462C580.522 43.154 580.858 42.8927 581.26 42.678C581.67 42.4633 582.086 42.3513 582.506 42.342L582.52 44.316H582.114ZM586.207 50H584.107V42.468H586.207V50ZM584.275 41.516C584.042 41.2733 583.925 40.9793 583.925 40.634C583.925 40.2887 584.042 39.9993 584.275 39.766C584.518 39.5233 584.812 39.402 585.157 39.402C585.503 39.402 585.792 39.5233 586.025 39.766C586.268 39.9993 586.389 40.2887 586.389 40.634C586.389 40.9793 586.268 41.2733 586.025 41.516C585.792 41.7493 585.503 41.866 585.157 41.866C584.812 41.866 584.518 41.7493 584.275 41.516ZM592.007 48.25C592.707 48.25 593.337 47.9 593.897 47.2L595.143 48.6C594.173 49.608 593.123 50.112 591.993 50.112C590.864 50.112 589.907 49.7573 589.123 49.048C588.349 48.3293 587.961 47.396 587.961 46.248C587.961 45.0907 588.353 44.1527 589.137 43.434C589.931 42.706 590.869 42.342 591.951 42.342C592.493 42.342 593.039 42.454 593.589 42.678C594.149 42.902 594.639 43.2333 595.059 43.672L593.967 45.1C593.725 44.8107 593.426 44.5867 593.071 44.428C592.726 44.2693 592.381 44.19 592.035 44.19C591.485 44.19 591.009 44.372 590.607 44.736C590.215 45.0907 590.019 45.59 590.019 46.234C590.019 46.8687 590.215 47.3633 590.607 47.718C591.009 48.0727 591.475 48.25 592.007 48.25ZM598.844 50H596.744V42.468H598.844V50ZM596.912 41.516C596.678 41.2733 596.562 40.9793 596.562 40.634C596.562 40.2887 596.678 39.9993 596.912 39.766C597.154 39.5233 597.448 39.402 597.794 39.402C598.139 39.402 598.428 39.5233 598.662 39.766C598.904 39.9993 599.026 40.2887 599.026 40.634C599.026 40.9793 598.904 41.2733 598.662 41.516C598.428 41.7493 598.139 41.866 597.794 41.866C597.448 41.866 597.154 41.7493 596.912 41.516ZM603.132 45.8V50H601.032V42.468H603.132V43.308C603.766 42.664 604.48 42.342 605.274 42.342C606.067 42.342 606.73 42.622 607.262 43.182C607.803 43.742 608.074 44.4887 608.074 45.422V50H605.974V45.744C605.974 44.5867 605.549 44.008 604.7 44.008C604.28 44.008 603.911 44.162 603.594 44.47C603.286 44.7687 603.132 45.212 603.132 45.8ZM615.451 46.08C615.451 45.4733 615.283 44.9973 614.947 44.652C614.611 44.3067 614.196 44.134 613.701 44.134C613.206 44.134 612.777 44.3067 612.413 44.652C612.058 44.9973 611.881 45.4687 611.881 46.066C611.881 46.6633 612.054 47.1487 612.399 47.522C612.754 47.886 613.183 48.068 613.687 48.068C614.191 48.068 614.611 47.886 614.947 47.522C615.283 47.158 615.451 46.6773 615.451 46.08ZM615.745 48.726C615.082 49.4633 614.256 49.832 613.267 49.832C612.287 49.832 611.456 49.5007 610.775 48.838C610.103 48.166 609.767 47.2747 609.767 46.164C609.767 45.044 610.112 44.1293 610.803 43.42C611.503 42.7013 612.301 42.342 613.197 42.342C614.093 42.342 614.835 42.7107 615.423 43.448V42.454H617.523V49.02C617.523 49.692 617.406 50.2893 617.173 50.812C616.94 51.3347 616.627 51.7453 616.235 52.044C615.46 52.66 614.546 52.968 613.491 52.968C612.931 52.968 612.357 52.8747 611.769 52.688C611.19 52.5107 610.682 52.254 610.243 51.918L611.055 50.336C611.746 50.8587 612.474 51.12 613.239 51.12C614.014 51.12 614.625 50.9287 615.073 50.546C615.521 50.1633 615.745 49.5567 615.745 48.726Z" fill="white"/>
</g>
</g>
<g clip-path="url(#clip9_1_72)">
<g clip-path="url(#clip10_1_72)">
<path d="M645.763 48.068C646.836 48.068 647.714 47.6433 648.395 46.794L649.795 48.236C648.684 49.4867 647.373 50.112 645.861 50.112C644.358 50.112 643.117 49.636 642.137 48.684C641.166 47.732 640.681 46.5327 640.681 45.086C640.681 43.63 641.176 42.4167 642.165 41.446C643.164 40.4753 644.382 39.99 645.819 39.99C647.424 39.99 648.768 40.6013 649.851 41.824L648.493 43.364C647.802 42.5053 646.944 42.076 645.917 42.076C645.096 42.076 644.391 42.3467 643.803 42.888C643.224 43.42 642.935 44.1433 642.935 45.058C642.935 45.9633 643.21 46.6913 643.761 47.242C644.312 47.7927 644.979 48.068 645.763 48.068ZM652.892 46.234C652.892 46.85 653.065 47.354 653.41 47.746C653.765 48.1287 654.213 48.32 654.754 48.32C655.305 48.32 655.753 48.1287 656.098 47.746C656.453 47.354 656.63 46.85 656.63 46.234C656.63 45.618 656.453 45.114 656.098 44.722C655.753 44.33 655.305 44.134 654.754 44.134C654.213 44.134 653.765 44.33 653.41 44.722C653.065 45.114 652.892 45.618 652.892 46.234ZM658.744 46.234C658.744 47.326 658.366 48.2453 657.61 48.992C656.854 49.7387 655.902 50.112 654.754 50.112C653.615 50.112 652.668 49.7387 651.912 48.992C651.156 48.2453 650.778 47.326 650.778 46.234C650.778 45.142 651.156 44.2227 651.912 43.476C652.668 42.72 653.615 42.342 654.754 42.342C655.902 42.342 656.854 42.72 657.61 43.476C658.366 44.2227 658.744 45.142 658.744 46.234ZM662.604 45.8V50H660.504V42.468H662.604V43.308C663.239 42.664 663.953 42.342 664.746 42.342C665.539 42.342 666.202 42.622 666.734 43.182C667.275 43.742 667.546 44.4887 667.546 45.422V50H665.446V45.744C665.446 44.5867 665.021 44.008 664.172 44.008C663.752 44.008 663.383 44.162 663.066 44.47C662.758 44.7687 662.604 45.212 662.604 45.8ZM672.042 43.98V47.354C672.042 47.6433 672.117 47.872 672.266 48.04C672.415 48.1987 672.593 48.278 672.798 48.278C673.19 48.278 673.521 48.1007 673.792 47.746L674.576 49.216C673.923 49.8133 673.232 50.112 672.504 50.112C671.785 50.112 671.174 49.874 670.67 49.398C670.175 48.922 669.928 48.2733 669.928 47.452V43.98H669.046V42.468H669.928V40.214H672.042V42.468H673.862V43.98H672.042ZM682.3 50H680.326V49.09C679.785 49.7713 679.113 50.112 678.31 50.112C677.517 50.112 676.849 49.8833 676.308 49.426C675.767 48.9593 675.496 48.3433 675.496 47.578C675.496 46.8033 675.776 46.2247 676.336 45.842C676.896 45.4593 677.661 45.268 678.632 45.268H680.2V45.226C680.2 44.4233 679.775 44.022 678.926 44.022C678.562 44.022 678.175 44.0967 677.764 44.246C677.363 44.386 677.022 44.5633 676.742 44.778L675.804 43.42C676.793 42.7013 677.923 42.342 679.192 42.342C680.107 42.342 680.853 42.5707 681.432 43.028C682.011 43.4853 682.3 44.2087 682.3 45.198V50ZM680.186 47.13V46.766H678.87C678.03 46.766 677.61 47.0273 677.61 47.55C677.61 47.8207 677.708 48.0307 677.904 48.18C678.109 48.32 678.399 48.39 678.772 48.39C679.145 48.39 679.472 48.278 679.752 48.054C680.041 47.8207 680.186 47.5127 680.186 47.13ZM688.027 48.25C688.727 48.25 689.357 47.9 689.917 47.2L691.163 48.6C690.192 49.608 689.142 50.112 688.013 50.112C686.883 50.112 685.927 49.7573 685.143 49.048C684.368 48.3293 683.981 47.396 683.981 46.248C683.981 45.0907 684.373 44.1527 685.157 43.434C685.95 42.706 686.888 42.342 687.971 42.342C688.512 42.342 689.058 42.454 689.609 42.678C690.169 42.902 690.659 43.2333 691.079 43.672L689.987 45.1C689.744 44.8107 689.445 44.5867 689.091 44.428C688.745 44.2693 688.4 44.19 688.055 44.19C687.504 44.19 687.028 44.372 686.627 44.736C686.235 45.0907 686.039 45.59 686.039 46.234C686.039 46.8687 686.235 47.3633 686.627 47.718C687.028 48.0727 687.495 48.25 688.027 48.25ZM695.269 43.98V47.354C695.269 47.6433 695.344 47.872 695.493 48.04C695.642 48.1987 695.82 48.278 696.025 48.278C696.417 48.278 696.748 48.1007 697.019 47.746L697.803 49.216C697.15 49.8133 696.459 50.112 695.731 50.112C695.012 50.112 694.401 49.874 693.897 49.398C693.402 48.922 693.155 48.2733 693.155 47.452V43.98H692.273V42.468H693.155V40.214H695.269V42.468H697.089V43.98H695.269Z" fill="white"/>
</g>
</g>
</g>
<g clip-path="url(#clip11_1_72)">
<g clip-path="url(#clip12_1_72)">
<path d="M940.084 50V40.214H942.268V48.054H946.44V50H940.084ZM949.615 46.234C949.615 46.85 949.788 47.354 950.133 47.746C950.488 48.1287 950.936 48.32 951.477 48.32C952.028 48.32 952.476 48.1287 952.821 47.746C953.176 47.354 953.353 46.85 953.353 46.234C953.353 45.618 953.176 45.114 952.821 44.722C952.476 44.33 952.028 44.134 951.477 44.134C950.936 44.134 950.488 44.33 950.133 44.722C949.788 45.114 949.615 45.618 949.615 46.234ZM955.467 46.234C955.467 47.326 955.089 48.2453 954.333 48.992C953.577 49.7387 952.625 50.112 951.477 50.112C950.338 50.112 949.391 49.7387 948.635 48.992C947.879 48.2453 947.501 47.326 947.501 46.234C947.501 45.142 947.879 44.2227 948.635 43.476C949.391 42.72 950.338 42.342 951.477 42.342C952.625 42.342 953.577 42.72 954.333 43.476C955.089 44.2227 955.467 45.142 955.467 46.234ZM962.505 46.08C962.505 45.4733 962.337 44.9973 962.001 44.652C961.665 44.3067 961.249 44.134 960.755 44.134C960.26 44.134 959.831 44.3067 959.467 44.652C959.112 44.9973 958.935 45.4687 958.935 46.066C958.935 46.6633 959.107 47.1487 959.453 47.522C959.807 47.886 960.237 48.068 960.741 48.068C961.245 48.068 961.665 47.886 962.001 47.522C962.337 47.158 962.505 46.6773 962.505 46.08ZM962.799 48.726C962.136 49.4633 961.31 49.832 960.321 49.832C959.341 49.832 958.51 49.5007 957.829 48.838C957.157 48.166 956.821 47.2747 956.821 46.164C956.821 45.044 957.166 44.1293 957.857 43.42C958.557 42.7013 959.355 42.342 960.251 42.342C961.147 42.342 961.889 42.7107 962.477 43.448V42.454H964.577V49.02C964.577 49.692 964.46 50.2893 964.227 50.812C963.993 51.3347 963.681 51.7453 963.289 52.044C962.514 52.66 961.599 52.968 960.545 52.968C959.985 52.968 959.411 52.8747 958.823 52.688C958.244 52.5107 957.735 52.254 957.297 51.918L958.109 50.336C958.799 50.8587 959.527 51.12 960.293 51.12C961.067 51.12 961.679 50.9287 962.127 50.546C962.575 50.1633 962.799 49.5567 962.799 48.726ZM968.865 50H966.765V42.468H968.865V50ZM966.933 41.516C966.699 41.2733 966.583 40.9793 966.583 40.634C966.583 40.2887 966.699 39.9993 966.933 39.766C967.175 39.5233 967.469 39.402 967.815 39.402C968.16 39.402 968.449 39.5233 968.683 39.766C968.925 39.9993 969.047 40.2887 969.047 40.634C969.047 40.9793 968.925 41.2733 968.683 41.516C968.449 41.7493 968.16 41.866 967.815 41.866C967.469 41.866 967.175 41.7493 966.933 41.516ZM973.153 45.8V50H971.053V42.468H973.153V43.308C973.787 42.664 974.501 42.342 975.295 42.342C976.088 42.342 976.751 42.622 977.283 43.182C977.824 43.742 978.095 44.4887 978.095 45.422V50H975.995V45.744C975.995 44.5867 975.57 44.008 974.721 44.008C974.301 44.008 973.932 44.162 973.615 44.47C973.307 44.7687 973.153 45.212 973.153 45.8Z" fill="#23A6F0"/>
</g>
</g>
<path d="M1024 24C1024 21.2386 1026.24 19 1029 19H1156C1158.76 19 1161 21.2386 1161 24V66C1161 68.7614 1158.76 71 1156 71H1029C1026.24 71 1024 68.7614 1024 66V24Z" fill="#23A6F0"/>
<path d="M1050.57 42.09V40.214H1055.66V46.598C1055.66 47.7647 1055.36 48.6373 1054.75 49.216C1054.16 49.7947 1053.39 50.084 1052.44 50.084C1051.27 50.084 1050.24 49.6313 1049.36 48.726L1050.5 47.158C1051.09 47.7927 1051.7 48.11 1052.35 48.11C1052.65 48.11 1052.92 47.9933 1053.13 47.76C1053.35 47.5173 1053.47 47.158 1053.47 46.682V42.09H1050.57ZM1065.67 45.058C1065.67 44.1807 1065.39 43.434 1064.83 42.818C1064.27 42.202 1063.58 41.894 1062.76 41.894C1061.95 41.894 1061.26 42.202 1060.7 42.818C1060.14 43.434 1059.86 44.1807 1059.86 45.058C1059.86 45.926 1060.14 46.668 1060.7 47.284C1061.26 47.8907 1061.95 48.194 1062.76 48.194C1063.58 48.194 1064.27 47.8907 1064.83 47.284C1065.39 46.668 1065.67 45.926 1065.67 45.058ZM1066.42 48.656C1065.43 49.6173 1064.21 50.098 1062.76 50.098C1061.31 50.098 1060.1 49.6173 1059.11 48.656C1058.12 47.6853 1057.62 46.4813 1057.62 45.044C1057.62 43.6067 1058.12 42.4073 1059.11 41.446C1060.1 40.4753 1061.31 39.99 1062.76 39.99C1064.21 39.99 1065.43 40.4753 1066.42 41.446C1067.4 42.4073 1067.9 43.6067 1067.9 45.044C1067.9 46.4813 1067.4 47.6853 1066.42 48.656ZM1069.95 40.214H1072.13V50H1069.95V40.214ZM1081.59 40.214H1083.77V50H1081.59L1076.93 43.868V50H1074.74V40.214H1076.79L1081.59 46.514V40.214ZM1092.87 47.48C1093.23 47.928 1093.72 48.152 1094.34 48.152C1094.95 48.152 1095.44 47.928 1095.79 47.48C1096.16 47.0227 1096.34 46.402 1096.34 45.618V40.214H1098.52V45.688C1098.52 47.1067 1098.13 48.1987 1097.35 48.964C1096.56 49.72 1095.56 50.098 1094.34 50.098C1093.12 50.098 1092.11 49.7153 1091.31 48.95C1090.53 48.1847 1090.14 47.0973 1090.14 45.688V40.214H1092.32V45.618C1092.32 46.402 1092.5 47.0227 1092.87 47.48ZM1104.14 41.908C1103.78 41.908 1103.49 41.9967 1103.27 42.174C1103.07 42.342 1102.97 42.5707 1102.97 42.86C1102.97 43.14 1103.09 43.364 1103.34 43.532C1103.61 43.7 1104.2 43.9007 1105.12 44.134C1106.06 44.358 1106.78 44.6987 1107.29 45.156C1107.81 45.6133 1108.06 46.2807 1108.06 47.158C1108.06 48.0353 1107.73 48.7493 1107.07 49.3C1106.41 49.8413 1105.55 50.112 1104.48 50.112C1102.93 50.112 1101.53 49.538 1100.29 48.39L1101.59 46.794C1102.65 47.718 1103.62 48.18 1104.52 48.18C1104.92 48.18 1105.23 48.096 1105.46 47.928C1105.69 47.7507 1105.81 47.5173 1105.81 47.228C1105.81 46.9293 1105.69 46.696 1105.44 46.528C1105.2 46.3507 1104.72 46.1733 1104 45.996C1102.86 45.7253 1102.03 45.3753 1101.5 44.946C1100.97 44.5073 1100.71 43.826 1100.71 42.902C1100.71 41.9687 1101.04 41.25 1101.71 40.746C1102.38 40.242 1103.21 39.99 1104.21 39.99C1104.87 39.99 1105.52 40.102 1106.17 40.326C1106.83 40.55 1107.39 40.8673 1107.88 41.278L1106.77 42.874C1105.92 42.23 1105.05 41.908 1104.14 41.908Z" fill="white"/>
<g clip-path="url(#clip13_1_72)">
<path fill-rule="evenodd" clip-rule="evenodd" d="M1124 45C1124 44.8106 1124.08 44.6289 1124.22 44.495C1124.36 44.3611 1124.55 44.2858 1124.75 44.2858H1133.44L1130.22 41.2207C1130.08 41.0866 1130 40.9047 1130 40.7151C1130 40.5254 1130.08 40.3435 1130.22 40.2094C1130.36 40.0753 1130.55 40 1130.75 40C1130.95 40 1131.14 40.0753 1131.28 40.2094L1135.78 44.4944C1135.85 44.5607 1135.9 44.6395 1135.94 44.7263C1135.98 44.8131 1136 44.9061 1136 45C1136 45.0939 1135.98 45.1869 1135.94 45.2737C1135.9 45.3605 1135.85 45.4393 1135.78 45.5056L1131.28 49.7906C1131.14 49.9247 1130.95 50 1130.75 50C1130.55 50 1130.36 49.9247 1130.22 49.7906C1130.08 49.6565 1130 49.4746 1130 49.2849C1130 49.0953 1130.08 48.9134 1130.22 48.7793L1133.44 45.7142H1124.75C1124.55 45.7142 1124.36 45.6389 1124.22 45.505C1124.08 45.3711 1124 45.1894 1124 45Z" fill="white"/>
</g>
</g>
<g clip-path="url(#clip14_1_72)">
<path d="M1010.94 640.352C1010.94 639.349 1010.62 638.496 1009.98 637.792C1009.34 637.088 1008.55 636.736 1007.61 636.736C1006.68 636.736 1005.9 637.088 1005.26 637.792C1004.62 638.496 1004.3 639.349 1004.3 640.352C1004.3 641.344 1004.62 642.192 1005.26 642.896C1005.9 643.589 1006.68 643.936 1007.61 643.936C1008.55 643.936 1009.34 643.589 1009.98 642.896C1010.62 642.192 1010.94 641.344 1010.94 640.352ZM1011.78 644.464C1010.65 645.563 1009.26 646.112 1007.61 646.112C1005.95 646.112 1004.56 645.563 1003.43 644.464C1002.3 643.355 1001.74 641.979 1001.74 640.336C1001.74 638.693 1002.3 637.323 1003.43 636.224C1004.56 635.115 1005.95 634.56 1007.61 634.56C1009.26 634.56 1010.65 635.115 1011.78 636.224C1012.91 637.323 1013.48 638.693 1013.48 640.336C1013.48 641.979 1012.91 643.355 1011.78 644.464ZM1017.76 641.2V646H1015.36V637.392H1017.76V638.352C1018.49 637.616 1019.3 637.248 1020.21 637.248C1021.12 637.248 1021.87 637.568 1022.48 638.208C1023.1 638.848 1023.41 639.701 1023.41 640.768V646H1021.01V641.136C1021.01 639.813 1020.52 639.152 1019.55 639.152C1019.07 639.152 1018.65 639.328 1018.29 639.68C1017.94 640.021 1017.76 640.528 1017.76 641.2ZM1028.08 646H1025.68V634.128H1028.08V646ZM1032.85 646H1030.45V637.392H1032.85V646ZM1030.64 636.304C1030.38 636.027 1030.24 635.691 1030.24 635.296C1030.24 634.901 1030.38 634.571 1030.64 634.304C1030.92 634.027 1031.26 633.888 1031.65 633.888C1032.05 633.888 1032.38 634.027 1032.64 634.304C1032.92 634.571 1033.06 634.901 1033.06 635.296C1033.06 635.691 1032.92 636.027 1032.64 636.304C1032.38 636.571 1032.05 636.704 1031.65 636.704C1031.26 636.704 1030.92 636.571 1030.64 636.304ZM1037.62 641.2V646H1035.22V637.392H1037.62V638.352C1038.35 637.616 1039.16 637.248 1040.07 637.248C1040.98 637.248 1041.74 637.568 1042.34 638.208C1042.96 638.848 1043.27 639.701 1043.27 640.768V646H1040.87V641.136C1040.87 639.813 1040.39 639.152 1039.42 639.152C1038.94 639.152 1038.51 639.328 1038.15 639.68C1037.8 640.021 1037.62 640.528 1037.62 641.2ZM1053 644.752C1052.03 645.669 1050.89 646.128 1049.57 646.128C1048.27 646.128 1047.2 645.728 1046.34 644.928C1045.49 644.117 1045.06 643.035 1045.06 641.68C1045.06 640.325 1045.49 639.248 1046.36 638.448C1047.23 637.648 1048.26 637.248 1049.45 637.248C1050.63 637.248 1051.63 637.605 1052.45 638.32C1053.29 639.035 1053.7 640.016 1053.7 641.264V642.544H1047.43C1047.5 643.013 1047.75 643.397 1048.17 643.696C1048.58 643.995 1049.05 644.144 1049.57 644.144C1050.42 644.144 1051.11 643.861 1051.65 643.296L1053 644.752ZM1051.27 640.832C1051.22 640.32 1051.02 639.925 1050.69 639.648C1050.36 639.371 1049.96 639.232 1049.48 639.232C1049.01 639.232 1048.58 639.376 1048.18 639.664C1047.79 639.952 1047.56 640.341 1047.49 640.832H1051.27ZM1062.72 639.12V642.976C1062.72 643.307 1062.8 643.568 1062.97 643.76C1063.14 643.941 1063.34 644.032 1063.58 644.032C1064.03 644.032 1064.41 643.829 1064.72 643.424L1065.61 645.104C1064.86 645.787 1064.08 646.128 1063.24 646.128C1062.42 646.128 1061.72 645.856 1061.15 645.312C1060.58 644.768 1060.3 644.027 1060.3 643.088V639.12H1059.29V637.392H1060.3V634.816H1062.72V637.392H1064.8V639.12H1062.72ZM1071.53 639.504C1070.81 639.504 1070.28 639.76 1069.93 640.272C1069.57 640.773 1069.4 641.44 1069.4 642.272V646H1067V637.392H1069.4V638.528C1069.71 638.176 1070.09 637.877 1070.55 637.632C1071.02 637.387 1071.49 637.259 1071.97 637.248L1071.99 639.504H1071.53ZM1080.91 646H1078.65V644.96C1078.04 645.739 1077.27 646.128 1076.35 646.128C1075.44 646.128 1074.68 645.867 1074.06 645.344C1073.44 644.811 1073.13 644.107 1073.13 643.232C1073.13 642.347 1073.45 641.685 1074.09 641.248C1074.73 640.811 1075.61 640.592 1076.72 640.592H1078.51V640.544C1078.51 639.627 1078.03 639.168 1077.05 639.168C1076.64 639.168 1076.2 639.253 1075.73 639.424C1075.27 639.584 1074.88 639.787 1074.56 640.032L1073.49 638.48C1074.62 637.659 1075.91 637.248 1077.36 637.248C1078.4 637.248 1079.26 637.509 1079.92 638.032C1080.58 638.555 1080.91 639.381 1080.91 640.512V646ZM1078.49 642.72V642.304H1076.99C1076.03 642.304 1075.55 642.603 1075.55 643.2C1075.55 643.509 1075.66 643.749 1075.89 643.92C1076.12 644.08 1076.45 644.16 1076.88 644.16C1077.31 644.16 1077.68 644.032 1078 643.776C1078.33 643.509 1078.49 643.157 1078.49 642.72ZM1085.6 646H1083.2V637.392H1085.6V646ZM1083.39 636.304C1083.12 636.027 1082.99 635.691 1082.99 635.296C1082.99 634.901 1083.12 634.571 1083.39 634.304C1083.67 634.027 1084 633.888 1084.4 633.888C1084.79 633.888 1085.12 634.027 1085.39 634.304C1085.67 634.571 1085.81 634.901 1085.81 635.296C1085.81 635.691 1085.67 636.027 1085.39 636.304C1085.12 636.571 1084.79 636.704 1084.4 636.704C1084 636.704 1083.67 636.571 1083.39 636.304ZM1090.37 641.2V646H1087.97V637.392H1090.37V638.352C1091.1 637.616 1091.91 637.248 1092.82 637.248C1093.73 637.248 1094.48 637.568 1095.09 638.208C1095.71 638.848 1096.02 639.701 1096.02 640.768V646H1093.62V641.136C1093.62 639.813 1093.13 639.152 1092.16 639.152C1091.68 639.152 1091.26 639.328 1090.9 639.68C1090.55 640.021 1090.37 640.528 1090.37 641.2ZM1100.69 646H1098.29V637.392H1100.69V646ZM1098.48 636.304C1098.21 636.027 1098.08 635.691 1098.08 635.296C1098.08 634.901 1098.21 634.571 1098.48 634.304C1098.76 634.027 1099.09 633.888 1099.49 633.888C1099.88 633.888 1100.21 634.027 1100.48 634.304C1100.76 634.571 1100.9 634.901 1100.9 635.296C1100.9 635.691 1100.76 636.027 1100.48 636.304C1100.21 636.571 1099.88 636.704 1099.49 636.704C1099.09 636.704 1098.76 636.571 1098.48 636.304ZM1105.46 641.2V646H1103.06V637.392H1105.46V638.352C1106.19 637.616 1107 637.248 1107.91 637.248C1108.82 637.248 1109.57 637.568 1110.18 638.208C1110.8 638.848 1111.11 639.701 1111.11 640.768V646H1108.71V641.136C1108.71 639.813 1108.22 639.152 1107.25 639.152C1106.77 639.152 1106.35 639.328 1105.99 639.68C1105.64 640.021 1105.46 640.528 1105.46 641.2ZM1119.41 641.52C1119.41 640.827 1119.22 640.283 1118.84 639.888C1118.45 639.493 1117.98 639.296 1117.41 639.296C1116.85 639.296 1116.36 639.493 1115.94 639.888C1115.53 640.283 1115.33 640.821 1115.33 641.504C1115.33 642.187 1115.53 642.741 1115.92 643.168C1116.33 643.584 1116.82 643.792 1117.4 643.792C1117.97 643.792 1118.45 643.584 1118.84 643.168C1119.22 642.752 1119.41 642.203 1119.41 641.52ZM1119.75 644.544C1118.99 645.387 1118.05 645.808 1116.92 645.808C1115.8 645.808 1114.85 645.429 1114.07 644.672C1113.3 643.904 1112.92 642.885 1112.92 641.616C1112.92 640.336 1113.31 639.291 1114.1 638.48C1114.9 637.659 1115.81 637.248 1116.84 637.248C1117.86 637.248 1118.71 637.669 1119.38 638.512V637.376H1121.78V644.88C1121.78 645.648 1121.65 646.331 1121.38 646.928C1121.11 647.525 1120.76 647.995 1120.31 648.336C1119.42 649.04 1118.38 649.392 1117.17 649.392C1116.53 649.392 1115.88 649.285 1115.2 649.072C1114.54 648.869 1113.96 648.576 1113.46 648.192L1114.39 646.384C1115.18 646.981 1116.01 647.28 1116.88 647.28C1117.77 647.28 1118.47 647.061 1118.98 646.624C1119.49 646.187 1119.75 645.493 1119.75 644.544Z" fill="#23A6F0"/>
<path d="M751.979 712.458H761.027V753H751.979V712.458ZM778.757 735.6V753H770.057V721.796H778.757V725.276C781.386 722.608 784.344 721.274 787.631 721.274C790.917 721.274 793.663 722.434 795.867 724.754C798.109 727.074 799.231 730.167 799.231 734.034V753H790.531V735.368C790.531 730.573 788.771 728.176 785.253 728.176C783.513 728.176 781.985 728.814 780.671 730.09C779.395 731.327 778.757 733.164 778.757 735.6ZM807.068 739.428V731.714H827.716V739.428H807.068ZM848.403 753.464C844.73 753.464 841.443 751.898 838.543 748.766C835.643 745.634 834.193 741.748 834.193 737.108C834.193 732.468 835.605 728.679 838.427 725.74C841.25 722.763 844.556 721.274 848.345 721.274C852.135 721.274 855.228 722.608 857.625 725.276V709.964H866.325V753H857.625V748.882C855.189 751.937 852.115 753.464 848.403 753.464ZM842.951 737.456C842.951 739.969 843.705 742.038 845.213 743.662C846.721 745.247 848.481 746.04 850.491 746.04C852.502 746.04 854.203 745.247 855.595 743.662C857.026 742.038 857.741 739.969 857.741 737.456C857.741 734.904 857.026 732.797 855.595 731.134C854.203 729.433 852.483 728.582 850.433 728.582C848.384 728.582 846.625 729.433 845.155 731.134C843.686 732.835 842.951 734.943 842.951 737.456ZM901.79 748.476C898.271 751.801 894.134 753.464 889.378 753.464C884.661 753.464 880.755 752.014 877.662 749.114C874.569 746.175 873.022 742.251 873.022 737.34C873.022 732.429 874.588 728.524 877.72 725.624C880.891 722.724 884.622 721.274 888.914 721.274C893.206 721.274 896.841 722.569 899.818 725.16C902.834 727.751 904.342 731.308 904.342 735.832V740.472H881.606C881.877 742.173 882.766 743.565 884.274 744.648C885.782 745.731 887.483 746.272 889.378 746.272C892.433 746.272 894.946 745.247 896.918 743.198L901.79 748.476ZM895.526 734.266C895.333 732.41 894.637 730.979 893.438 729.974C892.239 728.969 890.77 728.466 889.03 728.466C887.329 728.466 885.763 728.988 884.332 730.032C882.901 731.076 882.07 732.487 881.838 734.266H895.526ZM928.97 721.274C932.604 721.274 935.833 722.801 938.656 725.856C941.517 728.872 942.948 732.681 942.948 737.282C942.948 741.883 941.517 745.731 938.656 748.824C935.833 751.917 932.508 753.464 928.68 753.464C924.89 753.464 921.836 751.937 919.516 748.882V764.252H910.816V721.796H919.516V725.276C922.184 722.608 925.335 721.274 928.97 721.274ZM919.4 737.456C919.4 739.969 920.096 742.038 921.488 743.662C922.918 745.247 924.639 746.04 926.65 746.04C928.66 746.04 930.42 745.247 931.928 743.662C933.436 742.038 934.19 739.969 934.19 737.456C934.19 734.943 933.455 732.835 931.986 731.134C930.516 729.433 928.757 728.582 926.708 728.582C924.658 728.582 922.918 729.433 921.488 731.134C920.096 732.797 919.4 734.904 919.4 737.456ZM959.517 728.06V742.038C959.517 743.237 959.826 744.184 960.445 744.88C961.063 745.537 961.798 745.866 962.649 745.866C964.273 745.866 965.645 745.131 966.767 743.662L970.015 749.752C967.308 752.227 964.447 753.464 961.431 753.464C958.453 753.464 955.921 752.478 953.833 750.506C951.783 748.534 950.759 745.847 950.759 742.444V728.06H947.105V721.796H950.759V712.458H959.517V721.796H967.057V728.06H959.517ZM983.58 736.18V753H974.88V709.964H983.58V725.276C986.209 722.608 989.148 721.274 992.396 721.274C995.682 721.274 998.447 722.434 1000.69 724.754C1002.93 727.074 1004.05 730.167 1004.05 734.034V753H995.354V735.948C995.354 731.153 993.594 728.756 990.076 728.756C988.336 728.756 986.808 729.394 985.494 730.67C984.218 731.907 983.58 733.744 983.58 736.18ZM1013.28 752.304C1011.93 751.337 1011.25 750.081 1011.25 748.534C1011.25 746.987 1011.77 745.731 1012.82 744.764C1013.86 743.759 1015.12 743.256 1016.59 743.256C1018.06 743.256 1019.31 743.739 1020.36 744.706C1021.44 745.673 1021.98 746.813 1021.98 748.128C1021.98 749.404 1021.42 750.951 1020.3 752.768L1016.82 758.742H1011.08L1013.28 752.304ZM1057.5 753.464C1053.83 753.464 1050.54 751.898 1047.64 748.766C1044.74 745.634 1043.29 741.748 1043.29 737.108C1043.29 732.468 1044.71 728.679 1047.53 725.74C1050.35 722.763 1053.66 721.274 1057.45 721.274C1061.24 721.274 1064.33 722.608 1066.73 725.276V709.964H1075.43V753H1066.73V748.882C1064.29 751.937 1061.22 753.464 1057.5 753.464ZM1052.05 737.456C1052.05 739.969 1052.81 742.038 1054.31 743.662C1055.82 745.247 1057.58 746.04 1059.59 746.04C1061.6 746.04 1063.3 745.247 1064.7 743.662C1066.13 742.038 1066.84 739.969 1066.84 737.456C1066.84 734.904 1066.13 732.797 1064.7 731.134C1063.3 729.433 1061.58 728.582 1059.53 728.582C1057.49 728.582 1055.73 729.433 1054.26 731.134C1052.79 732.835 1052.05 734.943 1052.05 737.456ZM1110.89 748.476C1107.37 751.801 1103.24 753.464 1098.48 753.464C1093.76 753.464 1089.86 752.014 1086.76 749.114C1083.67 746.175 1082.12 742.251 1082.12 737.34C1082.12 732.429 1083.69 728.524 1086.82 725.624C1089.99 722.724 1093.72 721.274 1098.02 721.274C1102.31 721.274 1105.94 722.569 1108.92 725.16C1111.94 727.751 1113.44 731.308 1113.44 735.832V740.472H1090.71C1090.98 742.173 1091.87 743.565 1093.38 744.648C1094.88 745.731 1096.58 746.272 1098.48 746.272C1101.53 746.272 1104.05 745.247 1106.02 743.198L1110.89 748.476ZM1104.63 734.266C1104.43 732.41 1103.74 730.979 1102.54 729.974C1101.34 728.969 1099.87 728.466 1098.13 728.466C1096.43 728.466 1094.86 728.988 1093.43 730.032C1092 731.076 1091.17 732.487 1090.94 734.266H1104.63ZM1148.57 736.18V753H1139.81V735.948C1139.81 733.473 1139.42 731.656 1138.65 730.496C1137.92 729.336 1136.7 728.756 1135 728.756C1133.33 728.756 1131.85 729.394 1130.53 730.67C1129.25 731.907 1128.62 733.744 1128.62 736.18V753H1119.92V721.796H1128.62V725.334C1131.01 722.627 1133.76 721.274 1136.85 721.274C1138.82 721.274 1140.6 721.854 1142.19 723.014C1143.81 724.174 1145.03 725.585 1145.84 727.248C1147.04 725.353 1148.65 723.884 1150.66 722.84C1152.71 721.796 1154.76 721.274 1156.8 721.274C1160.48 721.274 1163.44 722.376 1165.68 724.58C1167.92 726.745 1169.04 729.897 1169.04 734.034V753H1160.28V735.948C1160.28 731.153 1158.53 728.756 1155.01 728.756C1153.27 728.756 1151.76 729.394 1150.48 730.67C1149.21 731.907 1148.57 733.744 1148.57 736.18ZM1203.66 753H1195.48V749.23C1193.24 752.053 1190.46 753.464 1187.13 753.464C1183.84 753.464 1181.08 752.517 1178.84 750.622C1176.59 748.689 1175.47 746.137 1175.47 742.966C1175.47 739.757 1176.63 737.359 1178.95 735.774C1181.27 734.189 1184.44 733.396 1188.46 733.396H1194.96V733.222C1194.96 729.897 1193.2 728.234 1189.68 728.234C1188.17 728.234 1186.57 728.543 1184.87 729.162C1183.21 729.742 1181.79 730.477 1180.63 731.366L1176.75 725.74C1180.85 722.763 1185.53 721.274 1190.78 721.274C1194.57 721.274 1197.67 722.221 1200.06 724.116C1202.46 726.011 1203.66 729.007 1203.66 733.106V753ZM1194.9 741.11V739.602H1189.45C1185.97 739.602 1184.23 740.685 1184.23 742.85C1184.23 743.971 1184.64 744.841 1185.45 745.46C1186.3 746.04 1187.5 746.33 1189.04 746.33C1190.59 746.33 1191.94 745.866 1193.1 744.938C1194.3 743.971 1194.9 742.695 1194.9 741.11ZM1220.49 735.6V753H1211.79V721.796H1220.49V725.276C1223.12 722.608 1226.08 721.274 1229.37 721.274C1232.65 721.274 1235.4 722.434 1237.6 724.754C1239.84 727.074 1240.97 730.167 1240.97 734.034V753H1232.27V735.368C1232.27 730.573 1230.51 728.176 1226.99 728.176C1225.25 728.176 1223.72 728.814 1222.41 730.09C1221.13 731.327 1220.49 733.164 1220.49 735.6ZM1261.5 753.464C1257.83 753.464 1254.54 751.898 1251.64 748.766C1248.74 745.634 1247.29 741.748 1247.29 737.108C1247.29 732.468 1248.71 728.679 1251.53 725.74C1254.35 722.763 1257.66 721.274 1261.45 721.274C1265.24 721.274 1268.33 722.608 1270.73 725.276V709.964H1279.43V753H1270.73V748.882C1268.29 751.937 1265.22 753.464 1261.5 753.464ZM1256.05 737.456C1256.05 739.969 1256.81 742.038 1258.31 743.662C1259.82 745.247 1261.58 746.04 1263.59 746.04C1265.6 746.04 1267.3 745.247 1268.7 743.662C1270.13 742.038 1270.84 739.969 1270.84 737.456C1270.84 734.904 1270.13 732.797 1268.7 731.134C1267.3 729.433 1265.58 728.582 1263.53 728.582C1261.49 728.582 1259.73 729.433 1258.26 731.134C1256.79 732.835 1256.05 734.943 1256.05 737.456ZM1296.56 753H1287.86V721.796H1296.56V753ZM1288.56 717.852C1287.59 716.847 1287.11 715.629 1287.11 714.198C1287.11 712.767 1287.59 711.569 1288.56 710.602C1289.56 709.597 1290.78 709.094 1292.21 709.094C1293.64 709.094 1294.84 709.597 1295.81 710.602C1296.81 711.569 1297.32 712.767 1297.32 714.198C1297.32 715.629 1296.81 716.847 1295.81 717.852C1294.84 718.819 1293.64 719.302 1292.21 719.302C1290.78 719.302 1289.56 718.819 1288.56 717.852ZM1313.7 735.6V753H1305V721.796H1313.7V725.276C1316.33 722.608 1319.29 721.274 1322.57 721.274C1325.86 721.274 1328.6 722.434 1330.81 724.754C1333.05 727.074 1334.17 730.167 1334.17 734.034V753H1325.47V735.368C1325.47 730.573 1323.71 728.176 1320.19 728.176C1318.45 728.176 1316.93 728.814 1315.61 730.09C1314.34 731.327 1313.7 733.164 1313.7 735.6ZM1364.11 736.76C1364.11 734.247 1363.41 732.275 1362.02 730.844C1360.63 729.413 1358.91 728.698 1356.86 728.698C1354.81 728.698 1353.03 729.413 1351.52 730.844C1350.05 732.275 1349.32 734.227 1349.32 736.702C1349.32 739.177 1350.03 741.187 1351.46 742.734C1352.93 744.242 1354.71 744.996 1356.8 744.996C1358.89 744.996 1360.63 744.242 1362.02 742.734C1363.41 741.226 1364.11 739.235 1364.11 736.76ZM1365.33 747.722C1362.58 750.777 1359.16 752.304 1355.06 752.304C1351 752.304 1347.56 750.931 1344.74 748.186C1341.95 745.402 1340.56 741.709 1340.56 737.108C1340.56 732.468 1341.99 728.679 1344.85 725.74C1347.75 722.763 1351.06 721.274 1354.77 721.274C1358.48 721.274 1361.56 722.801 1363.99 725.856V721.738H1372.69V748.94C1372.69 751.724 1372.21 754.199 1371.24 756.364C1370.28 758.529 1368.98 760.231 1367.36 761.468C1364.15 764.02 1360.36 765.296 1355.99 765.296C1353.67 765.296 1351.29 764.909 1348.85 764.136C1346.46 763.401 1344.35 762.338 1342.53 760.946L1345.9 754.392C1348.76 756.557 1351.77 757.64 1354.94 757.64C1358.15 757.64 1360.69 756.847 1362.54 755.262C1364.4 753.677 1365.33 751.163 1365.33 747.722ZM966.606 825.75C969.506 825.75 972.116 824.3 974.436 821.4L979.598 827.2C975.577 831.376 971.227 833.464 966.548 833.464C961.869 833.464 957.906 831.995 954.658 829.056C951.449 826.079 949.844 822.212 949.844 817.456C949.844 812.661 951.468 808.775 954.716 805.798C958.003 802.782 961.889 801.274 966.374 801.274C968.617 801.274 970.879 801.738 973.16 802.666C975.48 803.594 977.51 804.967 979.25 806.784L974.726 812.7C973.721 811.501 972.483 810.573 971.014 809.916C969.583 809.259 968.153 808.93 966.722 808.93C964.441 808.93 962.469 809.684 960.806 811.192C959.182 812.661 958.37 814.73 958.37 817.398C958.37 820.027 959.182 822.077 960.806 823.546C962.469 825.015 964.402 825.75 966.606 825.75ZM992.05 817.398C992.05 819.95 992.765 822.038 994.196 823.662C995.665 825.247 997.521 826.04 999.764 826.04C1002.05 826.04 1003.9 825.247 1005.33 823.662C1006.8 822.038 1007.54 819.95 1007.54 817.398C1007.54 814.846 1006.8 812.758 1005.33 811.134C1003.9 809.51 1002.05 808.698 999.764 808.698C997.521 808.698 995.665 809.51 994.196 811.134C992.765 812.758 992.05 814.846 992.05 817.398ZM1016.29 817.398C1016.29 821.922 1014.73 825.731 1011.6 828.824C1008.46 831.917 1004.52 833.464 999.764 833.464C995.047 833.464 991.122 831.917 987.99 828.824C984.858 825.731 983.292 821.922 983.292 817.398C983.292 812.874 984.858 809.065 987.99 805.972C991.122 802.84 995.047 801.274 999.764 801.274C1004.52 801.274 1008.46 802.84 1011.6 805.972C1014.73 809.065 1016.29 812.874 1016.29 817.398ZM1043.08 818.616V801.796H1051.84V833H1043.08V828.882C1040.92 831.937 1038.11 833.464 1034.67 833.464C1031.27 833.464 1028.41 832.401 1026.09 830.274C1023.77 828.109 1022.61 824.919 1022.61 820.704V801.796H1031.37V818.79C1031.37 823.585 1033.13 825.982 1036.64 825.982C1038.38 825.982 1039.89 825.363 1041.17 824.126C1042.44 822.85 1043.08 821.013 1043.08 818.616ZM1076.67 809.452C1074.08 809.452 1072.15 810.38 1070.87 812.236C1069.59 814.053 1068.96 816.47 1068.96 819.486V833H1060.26V801.796H1068.96V805.914C1070.08 804.638 1071.47 803.555 1073.13 802.666C1074.83 801.777 1076.55 801.313 1078.29 801.274L1078.35 809.452H1076.67ZM1107.56 823.314C1107.56 826.369 1106.42 828.824 1104.14 830.68C1101.9 832.536 1099.04 833.464 1095.56 833.464C1093.24 833.464 1090.82 833.058 1088.31 832.246C1085.8 831.395 1083.53 830.158 1081.52 828.534L1085.35 823.082C1088.6 825.595 1092.06 826.852 1095.73 826.852C1096.85 826.852 1097.74 826.639 1098.4 826.214C1099.06 825.75 1099.39 825.151 1099.39 824.416C1099.39 823.681 1098.92 823.005 1097.99 822.386C1097.11 821.767 1095.79 821.187 1094.05 820.646C1092.35 820.105 1091.03 819.641 1090.11 819.254C1089.22 818.867 1088.19 818.307 1087.03 817.572C1084.67 816.103 1083.49 813.937 1083.49 811.076C1083.49 808.176 1084.65 805.817 1086.97 804C1089.29 802.183 1092.29 801.274 1095.96 801.274C1099.64 801.274 1103.31 802.511 1106.98 804.986L1103.74 810.786C1101.03 808.93 1098.32 808.002 1095.62 808.002C1092.95 808.002 1091.61 808.737 1091.61 810.206C1091.61 811.018 1092.04 811.656 1092.89 812.12C1093.74 812.584 1095.15 813.125 1097.12 813.744C1099.1 814.363 1100.49 814.846 1101.3 815.194C1102.15 815.503 1103.16 816.006 1104.32 816.702C1106.48 818.017 1107.56 820.221 1107.56 823.314ZM1141.44 828.476C1137.92 831.801 1133.78 833.464 1129.02 833.464C1124.31 833.464 1120.4 832.014 1117.31 829.114C1114.21 826.175 1112.67 822.251 1112.67 817.34C1112.67 812.429 1114.23 808.524 1117.37 805.624C1120.54 802.724 1124.27 801.274 1128.56 801.274C1132.85 801.274 1136.49 802.569 1139.46 805.16C1142.48 807.751 1143.99 811.308 1143.99 815.832V820.472H1121.25C1121.52 822.173 1122.41 823.565 1123.92 824.648C1125.43 825.731 1127.13 826.272 1129.02 826.272C1132.08 826.272 1134.59 825.247 1136.56 823.198L1141.44 828.476ZM1135.17 814.266C1134.98 812.41 1134.28 810.979 1133.08 809.974C1131.88 808.969 1130.42 808.466 1128.68 808.466C1126.97 808.466 1125.41 808.988 1123.98 810.032C1122.55 811.076 1121.72 812.487 1121.48 814.266H1135.17ZM1173.95 823.314C1173.95 826.369 1172.81 828.824 1170.53 830.68C1168.29 832.536 1165.43 833.464 1161.95 833.464C1159.63 833.464 1157.21 833.058 1154.7 832.246C1152.18 831.395 1149.92 830.158 1147.91 828.534L1151.74 823.082C1154.99 825.595 1158.45 826.852 1162.12 826.852C1163.24 826.852 1164.13 826.639 1164.79 826.214C1165.44 825.75 1165.77 825.151 1165.77 824.416C1165.77 823.681 1165.31 823.005 1164.38 822.386C1163.49 821.767 1162.18 821.187 1160.44 820.646C1158.74 820.105 1157.42 819.641 1156.49 819.254C1155.6 818.867 1154.58 818.307 1153.42 817.572C1151.06 816.103 1149.88 813.937 1149.88 811.076C1149.88 808.176 1151.04 805.817 1153.36 804C1155.68 802.183 1158.68 801.274 1162.35 801.274C1166.02 801.274 1169.7 802.511 1173.37 804.986L1170.12 810.786C1167.42 808.93 1164.71 808.002 1162 808.002C1159.34 808.002 1158 808.737 1158 810.206C1158 811.018 1158.43 811.656 1159.28 812.12C1160.13 812.584 1161.54 813.125 1163.51 813.744C1165.48 814.363 1166.88 814.846 1167.69 815.194C1168.54 815.503 1169.54 816.006 1170.7 816.702C1172.87 818.017 1173.95 820.221 1173.95 823.314Z" fill="white"/>
<path d="M800.329 910.08L803.449 900.02H805.569L808.689 910.08L812.209 900.02H814.749L809.869 914H807.529L804.589 904.42H804.429L801.489 914H799.149L794.269 900.02H796.809L800.329 910.08ZM826.706 909.66H818.366C818.419 910.433 818.773 911.06 819.426 911.54C820.079 912.007 820.826 912.24 821.666 912.24C822.999 912.24 824.013 911.82 824.706 910.98L825.986 912.38C824.839 913.567 823.346 914.16 821.506 914.16C820.013 914.16 818.739 913.667 817.686 912.68C816.646 911.68 816.126 910.347 816.126 908.68C816.126 907 816.659 905.667 817.726 904.68C818.793 903.693 820.046 903.2 821.486 903.2C822.939 903.2 824.173 903.64 825.186 904.52C826.199 905.387 826.706 906.587 826.706 908.12V909.66ZM818.366 907.9H824.466C824.466 907.007 824.186 906.32 823.626 905.84C823.066 905.36 822.373 905.12 821.546 905.12C820.733 905.12 819.999 905.373 819.346 905.88C818.693 906.373 818.366 907.047 818.366 907.9ZM837.297 914H835.057V899.16H837.297V907.88L841.617 903.36H844.497L840.457 907.58L844.797 914H842.077L838.917 909.34L837.297 910.98V914ZM849.119 908.24V914H846.879V903.36H849.119V905.3C849.479 904.647 849.972 904.133 850.599 903.76C851.239 903.387 851.925 903.2 852.659 903.2C853.859 903.2 854.825 903.567 855.559 904.3C856.305 905.033 856.679 906.093 856.679 907.48V914H854.439V908.16C854.439 906.2 853.625 905.22 851.999 905.22C851.225 905.22 850.552 905.48 849.979 906C849.405 906.507 849.119 907.253 849.119 908.24ZM862.488 911.2C863.128 911.84 863.935 912.16 864.908 912.16C865.882 912.16 866.682 911.84 867.308 911.2C867.948 910.547 868.268 909.707 868.268 908.68C868.268 907.653 867.948 906.82 867.308 906.18C866.682 905.527 865.882 905.2 864.908 905.2C863.935 905.2 863.128 905.527 862.488 906.18C861.862 906.82 861.548 907.653 861.548 908.68C861.548 909.707 861.862 910.547 862.488 911.2ZM868.908 912.58C867.842 913.633 866.508 914.16 864.908 914.16C863.308 914.16 861.975 913.633 860.908 912.58C859.842 911.513 859.308 910.213 859.308 908.68C859.308 907.147 859.842 905.853 860.908 904.8C861.975 903.733 863.308 903.2 864.908 903.2C866.508 903.2 867.842 903.733 868.908 904.8C869.975 905.853 870.508 907.147 870.508 908.68C870.508 910.213 869.975 911.513 868.908 912.58ZM878.098 914H875.538L871.858 903.36H874.178L876.818 911.4L879.458 903.36H881.778L884.418 911.4L887.058 903.36H889.378L885.698 914H883.138L880.618 906.72L878.098 914ZM899.489 908.24V914H897.249V899.18H899.489V905.3C899.809 904.647 900.289 904.133 900.929 903.76C901.582 903.387 902.282 903.2 903.029 903.2C904.229 903.2 905.196 903.567 905.929 904.3C906.676 905.033 907.049 906.093 907.049 907.48V914H904.809V908.16C904.809 906.2 903.996 905.22 902.369 905.22C901.596 905.22 900.922 905.48 900.349 906C899.776 906.507 899.489 907.253 899.489 908.24ZM912.859 911.2C913.499 911.84 914.305 912.16 915.279 912.16C916.252 912.16 917.052 911.84 917.679 911.2C918.319 910.547 918.639 909.707 918.639 908.68C918.639 907.653 918.319 906.82 917.679 906.18C917.052 905.527 916.252 905.2 915.279 905.2C914.305 905.2 913.499 905.527 912.859 906.18C912.232 906.82 911.919 907.653 911.919 908.68C911.919 909.707 912.232 910.547 912.859 911.2ZM919.279 912.58C918.212 913.633 916.879 914.16 915.279 914.16C913.679 914.16 912.345 913.633 911.279 912.58C910.212 911.513 909.679 910.213 909.679 908.68C909.679 907.147 910.212 905.853 911.279 904.8C912.345 903.733 913.679 903.2 915.279 903.2C916.879 903.2 918.212 903.733 919.279 904.8C920.345 905.853 920.879 907.147 920.879 908.68C920.879 910.213 920.345 911.513 919.279 912.58ZM928.469 914H925.909L922.229 903.36H924.549L927.189 911.4L929.829 903.36H932.149L934.789 911.4L937.429 903.36H939.749L936.069 914H933.509L930.989 906.72L928.469 914ZM949.859 914H947.619V899.16H949.859V914ZM961.928 914H959.888V912.58C959.008 913.633 957.828 914.16 956.348 914.16C955.241 914.16 954.321 913.847 953.588 913.22C952.868 912.593 952.508 911.76 952.508 910.72C952.508 909.667 952.894 908.88 953.668 908.36C954.441 907.84 955.488 907.58 956.808 907.58H959.708V907.18C959.708 905.767 958.921 905.06 957.348 905.06C956.361 905.06 955.334 905.42 954.268 906.14L953.268 904.74C954.561 903.713 956.028 903.2 957.668 903.2C958.921 903.2 959.941 903.52 960.728 904.16C961.528 904.787 961.928 905.78 961.928 907.14V914ZM959.688 910.04V909.14H957.168C955.554 909.14 954.748 909.647 954.748 910.66C954.748 911.18 954.948 911.58 955.348 911.86C955.748 912.127 956.301 912.26 957.008 912.26C957.728 912.26 958.354 912.06 958.888 911.66C959.421 911.26 959.688 910.72 959.688 910.04ZM970.826 905.46C969.719 905.46 968.886 905.82 968.326 906.54C967.766 907.26 967.486 908.227 967.486 909.44V914H965.246V903.36H967.486V905.5C967.846 904.833 968.332 904.287 968.946 903.86C969.572 903.433 970.232 903.213 970.926 903.2L970.946 905.46C970.906 905.46 970.866 905.46 970.826 905.46ZM983.235 903.36V912.64C983.235 914.52 982.722 915.927 981.695 916.86C980.682 917.807 979.375 918.28 977.775 918.28C976.175 918.28 974.728 917.78 973.435 916.78L974.495 915.08C975.535 915.867 976.582 916.26 977.635 916.26C978.702 916.26 979.542 915.987 980.155 915.44C980.782 914.893 981.095 914.02 981.095 912.82V911.46C980.762 912.087 980.282 912.587 979.655 912.96C979.042 913.333 978.348 913.52 977.575 913.52C976.162 913.52 975.002 913.027 974.095 912.04C973.188 911.053 972.735 909.827 972.735 908.36C972.735 906.893 973.188 905.667 974.095 904.68C975.002 903.693 976.155 903.2 977.555 903.2C978.968 903.2 980.115 903.78 980.995 904.94V903.36H983.235ZM974.935 908.28C974.935 909.147 975.202 909.9 975.735 910.54C976.282 911.167 977.008 911.48 977.915 911.48C978.835 911.48 979.575 911.173 980.135 910.56C980.708 909.947 980.995 909.187 980.995 908.28C980.995 907.36 980.708 906.587 980.135 905.96C979.562 905.32 978.822 905 977.915 905C977.008 905 976.282 905.327 975.735 905.98C975.202 906.633 974.935 907.4 974.935 908.28ZM996.581 909.66H988.241C988.294 910.433 988.648 911.06 989.301 911.54C989.954 912.007 990.701 912.24 991.541 912.24C992.874 912.24 993.888 911.82 994.581 910.98L995.861 912.38C994.714 913.567 993.221 914.16 991.381 914.16C989.888 914.16 988.614 913.667 987.561 912.68C986.521 911.68 986.001 910.347 986.001 908.68C986.001 907 986.534 905.667 987.601 904.68C988.668 903.693 989.921 903.2 991.361 903.2C992.814 903.2 994.048 903.64 995.061 904.52C996.074 905.387 996.581 906.587 996.581 908.12V909.66ZM988.241 907.9H994.341C994.341 907.007 994.061 906.32 993.501 905.84C992.941 905.36 992.248 905.12 991.421 905.12C990.608 905.12 989.874 905.373 989.221 905.88C988.568 906.373 988.241 907.047 988.241 907.9ZM1007.41 911.2C1008.05 911.84 1008.86 912.16 1009.83 912.16C1010.81 912.16 1011.61 911.84 1012.23 911.2C1012.87 910.547 1013.19 909.707 1013.19 908.68C1013.19 907.653 1012.87 906.82 1012.23 906.18C1011.61 905.527 1010.81 905.2 1009.83 905.2C1008.86 905.2 1008.05 905.527 1007.41 906.18C1006.79 906.82 1006.47 907.653 1006.47 908.68C1006.47 909.707 1006.79 910.547 1007.41 911.2ZM1013.83 912.58C1012.77 913.633 1011.43 914.16 1009.83 914.16C1008.23 914.16 1006.9 913.633 1005.83 912.58C1004.77 911.513 1004.23 910.213 1004.23 908.68C1004.23 907.147 1004.77 905.853 1005.83 904.8C1006.9 903.733 1008.23 903.2 1009.83 903.2C1011.43 903.2 1012.77 903.733 1013.83 904.8C1014.9 905.853 1015.43 907.147 1015.43 908.68C1015.43 910.213 1014.9 911.513 1013.83 912.58ZM1023.88 903.2C1025.31 903.2 1026.53 903.693 1027.54 904.68C1028.55 905.667 1029.06 906.98 1029.06 908.62C1029.06 910.26 1028.55 911.593 1027.54 912.62C1026.54 913.647 1025.37 914.16 1024.02 914.16C1022.69 914.16 1021.49 913.573 1020.42 912.4V914H1018.18V899.16H1020.42V905.22C1021.3 903.873 1022.45 903.2 1023.88 903.2ZM1020.38 908.7C1020.38 909.713 1020.69 910.547 1021.3 911.2C1021.91 911.84 1022.66 912.16 1023.54 912.16C1024.42 912.16 1025.19 911.84 1025.84 911.2C1026.49 910.56 1026.82 909.733 1026.82 908.72C1026.82 907.693 1026.5 906.847 1025.86 906.18C1025.22 905.5 1024.45 905.16 1023.56 905.16C1022.67 905.16 1021.91 905.5 1021.3 906.18C1020.69 906.847 1020.38 907.687 1020.38 908.7ZM1031.82 914.5V903.36H1034.06V914.58C1034.06 915.7 1033.72 916.587 1033.04 917.24C1032.37 917.907 1031.56 918.24 1030.6 918.24C1029.65 918.24 1028.78 917.887 1028 917.18L1029.04 915.5C1029.49 915.94 1029.94 916.16 1030.4 916.16C1030.86 916.16 1031.22 916.013 1031.46 915.72C1031.7 915.427 1031.82 915.02 1031.82 914.5ZM1031.92 901.24C1031.64 900.96 1031.5 900.627 1031.5 900.24C1031.5 899.853 1031.64 899.52 1031.92 899.24C1032.2 898.96 1032.53 898.82 1032.92 898.82C1033.3 898.82 1033.64 898.96 1033.92 899.24C1034.2 899.52 1034.34 899.853 1034.34 900.24C1034.34 900.627 1034.2 900.96 1033.92 901.24C1033.64 901.52 1033.3 901.66 1032.92 901.66C1032.53 901.66 1032.2 901.52 1031.92 901.24ZM1047.41 909.66H1039.07C1039.12 910.433 1039.47 911.06 1040.13 911.54C1040.78 912.007 1041.53 912.24 1042.37 912.24C1043.7 912.24 1044.71 911.82 1045.41 910.98L1046.69 912.38C1045.54 913.567 1044.05 914.16 1042.21 914.16C1040.71 914.16 1039.44 913.667 1038.39 912.68C1037.35 911.68 1036.83 910.347 1036.83 908.68C1036.83 907 1037.36 905.667 1038.43 904.68C1039.49 903.693 1040.75 903.2 1042.19 903.2C1043.64 903.2 1044.87 903.64 1045.89 904.52C1046.9 905.387 1047.41 906.587 1047.41 908.12V909.66ZM1039.07 907.9H1045.17C1045.17 907.007 1044.89 906.32 1044.33 905.84C1043.77 905.36 1043.07 905.12 1042.25 905.12C1041.43 905.12 1040.7 905.373 1040.05 905.88C1039.39 906.373 1039.07 907.047 1039.07 907.9ZM1054.79 914.16C1053.31 914.16 1052.04 913.66 1050.97 912.66C1049.9 911.647 1049.37 910.327 1049.37 908.7C1049.37 907.073 1049.92 905.753 1051.03 904.74C1052.15 903.713 1053.51 903.2 1055.11 903.2C1056.71 903.2 1058.06 903.753 1059.17 904.86L1057.85 906.48C1056.93 905.68 1056 905.28 1055.07 905.28C1054.14 905.28 1053.32 905.593 1052.63 906.22C1051.95 906.833 1051.61 907.633 1051.61 908.62C1051.61 909.593 1051.95 910.42 1052.63 911.1C1053.31 911.78 1054.14 912.12 1055.13 912.12C1056.13 912.12 1057.07 911.667 1057.95 910.76L1059.27 912.2C1057.98 913.507 1056.48 914.16 1054.79 914.16ZM1064.55 905.16V910.56C1064.55 911.067 1064.69 911.473 1064.95 911.78C1065.22 912.073 1065.59 912.22 1066.07 912.22C1066.55 912.22 1067.01 911.987 1067.45 911.52L1068.37 913.1C1067.59 913.807 1066.71 914.16 1065.75 914.16C1064.81 914.16 1063.99 913.833 1063.31 913.18C1062.65 912.513 1062.31 911.62 1062.31 910.5V905.16H1060.97V903.36H1062.31V900.02H1064.55V903.36H1067.35V905.16H1064.55ZM1077.93 910.82C1077.93 911.833 1077.56 912.647 1076.83 913.26C1076.1 913.86 1075.16 914.16 1074.01 914.16C1073.24 914.16 1072.43 914.02 1071.59 913.74C1070.76 913.46 1070.03 913.067 1069.39 912.56L1070.47 910.82C1071.71 911.753 1072.91 912.22 1074.07 912.22C1074.58 912.22 1074.98 912.107 1075.27 911.88C1075.56 911.64 1075.71 911.34 1075.71 910.98C1075.71 910.447 1075 909.967 1073.59 909.54C1073.48 909.5 1073.4 909.473 1073.35 909.46C1071.14 908.86 1070.03 907.86 1070.03 906.46C1070.03 905.473 1070.41 904.687 1071.17 904.1C1071.94 903.5 1072.94 903.2 1074.17 903.2C1075.4 903.2 1076.56 903.56 1077.65 904.28L1076.81 905.94C1075.94 905.367 1075 905.08 1073.99 905.08C1073.46 905.08 1073.02 905.18 1072.69 905.38C1072.36 905.567 1072.19 905.853 1072.19 906.24C1072.19 906.587 1072.36 906.84 1072.71 907C1072.95 907.12 1073.28 907.233 1073.71 907.34C1074.15 907.447 1074.54 907.553 1074.87 907.66C1075.2 907.767 1075.52 907.887 1075.83 908.02C1076.15 908.153 1076.49 908.34 1076.85 908.58C1077.57 909.06 1077.93 909.807 1077.93 910.82ZM1091.34 914H1088.78L1085.1 903.36H1087.42L1090.06 911.4L1092.7 903.36H1095.02L1097.66 911.4L1100.3 903.36H1102.62L1098.94 914H1096.38L1093.86 906.72L1091.34 914ZM1107.04 914H1104.8V903.36H1107.04V914ZM1104.94 901.24C1104.66 900.96 1104.52 900.627 1104.52 900.24C1104.52 899.853 1104.66 899.52 1104.94 899.24C1105.22 898.96 1105.55 898.82 1105.94 898.82C1106.33 898.82 1106.66 898.96 1106.94 899.24C1107.22 899.52 1107.36 899.853 1107.36 900.24C1107.36 900.627 1107.22 900.96 1106.94 901.24C1106.66 901.52 1106.33 901.66 1105.94 901.66C1105.55 901.66 1105.22 901.52 1104.94 901.24ZM1112.73 914H1110.49V899.16H1112.73V914ZM1118.42 914H1116.18V899.16H1118.42V914ZM1136.17 914H1134.13V912.58C1133.25 913.633 1132.07 914.16 1130.59 914.16C1129.49 914.16 1128.57 913.847 1127.83 913.22C1127.11 912.593 1126.75 911.76 1126.75 910.72C1126.75 909.667 1127.14 908.88 1127.91 908.36C1128.69 907.84 1129.73 907.58 1131.05 907.58H1133.95V907.18C1133.95 905.767 1133.17 905.06 1131.59 905.06C1130.61 905.06 1129.58 905.42 1128.51 906.14L1127.51 904.74C1128.81 903.713 1130.27 903.2 1131.91 903.2C1133.17 903.2 1134.19 903.52 1134.97 904.16C1135.77 904.787 1136.17 905.78 1136.17 907.14V914ZM1133.93 910.04V909.14H1131.41C1129.8 909.14 1128.99 909.647 1128.99 910.66C1128.99 911.18 1129.19 911.58 1129.59 911.86C1129.99 912.127 1130.55 912.26 1131.25 912.26C1131.97 912.26 1132.6 912.06 1133.13 911.66C1133.67 911.26 1133.93 910.72 1133.93 910.04ZM1144.21 914.16C1142.73 914.16 1141.46 913.66 1140.39 912.66C1139.32 911.647 1138.79 910.327 1138.79 908.7C1138.79 907.073 1139.34 905.753 1140.45 904.74C1141.57 903.713 1142.93 903.2 1144.53 903.2C1146.13 903.2 1147.48 903.753 1148.59 904.86L1147.27 906.48C1146.35 905.68 1145.42 905.28 1144.49 905.28C1143.56 905.28 1142.74 905.593 1142.05 906.22C1141.37 906.833 1141.03 907.633 1141.03 908.62C1141.03 909.593 1141.37 910.42 1142.05 911.1C1142.73 911.78 1143.56 912.12 1144.55 912.12C1145.55 912.12 1146.49 911.667 1147.37 910.76L1148.69 912.2C1147.4 913.507 1145.9 914.16 1144.21 914.16ZM1153.97 905.16V910.56C1153.97 911.067 1154.11 911.473 1154.37 911.78C1154.64 912.073 1155.01 912.22 1155.49 912.22C1155.97 912.22 1156.43 911.987 1156.87 911.52L1157.79 913.1C1157.01 913.807 1156.13 914.16 1155.17 914.16C1154.23 914.16 1153.41 913.833 1152.73 913.18C1152.07 912.513 1151.73 911.62 1151.73 910.5V905.16H1150.39V903.36H1151.73V900.02H1153.97V903.36H1156.77V905.16H1153.97ZM1159.47 912.7C1159.47 912.273 1159.62 911.92 1159.91 911.64C1160.21 911.347 1160.55 911.2 1160.95 911.2C1161.35 911.2 1161.7 911.347 1161.99 911.64C1162.3 911.92 1162.45 912.26 1162.45 912.66C1162.45 913.06 1162.27 913.547 1161.91 914.12L1160.71 916.1H1159.55L1160.29 914.02C1159.75 913.767 1159.47 913.327 1159.47 912.7ZM1176.99 903.2C1178.41 903.2 1179.63 903.693 1180.65 904.68C1181.66 905.667 1182.17 906.98 1182.17 908.62C1182.17 910.26 1181.66 911.593 1180.65 912.62C1179.65 913.647 1178.47 914.16 1177.13 914.16C1175.79 914.16 1174.59 913.573 1173.53 912.4V914H1171.29V899.16H1173.53V905.22C1174.41 903.873 1175.56 903.2 1176.99 903.2ZM1173.49 908.7C1173.49 909.713 1173.79 910.547 1174.41 911.2C1175.02 911.84 1175.77 912.16 1176.65 912.16C1177.53 912.16 1178.29 911.84 1178.95 911.2C1179.6 910.56 1179.93 909.733 1179.93 908.72C1179.93 907.693 1179.61 906.847 1178.97 906.18C1178.33 905.5 1177.56 905.16 1176.67 905.16C1175.77 905.16 1175.02 905.5 1174.41 906.18C1173.79 906.847 1173.49 907.687 1173.49 908.7ZM1192.36 909.12V903.36H1194.6V914H1192.36V912.06C1192 912.713 1191.5 913.227 1190.86 913.6C1190.24 913.973 1189.56 914.16 1188.82 914.16C1187.62 914.16 1186.65 913.793 1185.9 913.06C1185.17 912.327 1184.8 911.267 1184.8 909.88V903.36H1187.04V909.2C1187.04 911.16 1187.86 912.14 1189.48 912.14C1190.26 912.14 1190.93 911.887 1191.5 911.38C1192.08 910.86 1192.36 910.107 1192.36 909.12ZM1200.81 905.16V910.56C1200.81 911.067 1200.95 911.473 1201.21 911.78C1201.48 912.073 1201.85 912.22 1202.33 912.22C1202.81 912.22 1203.27 911.987 1203.71 911.52L1204.63 913.1C1203.85 913.807 1202.97 914.16 1202.01 914.16C1201.07 914.16 1200.25 913.833 1199.57 913.18C1198.91 912.513 1198.57 911.62 1198.57 910.5V905.16H1197.23V903.36H1198.57V900.02H1200.81V903.36H1203.61V905.16H1200.81ZM1215.06 905.16V910.56C1215.06 911.067 1215.19 911.473 1215.46 911.78C1215.73 912.073 1216.1 912.22 1216.58 912.22C1217.06 912.22 1217.52 911.987 1217.96 911.52L1218.88 913.1C1218.09 913.807 1217.22 914.16 1216.26 914.16C1215.31 914.16 1214.5 913.833 1213.82 913.18C1213.15 912.513 1212.82 911.62 1212.82 910.5V905.16H1211.48V903.36H1212.82V900.02H1215.06V903.36H1217.86V905.16H1215.06ZM1223.1 908.24V914H1220.86V899.18H1223.1V905.3C1223.42 904.647 1223.9 904.133 1224.54 903.76C1225.19 903.387 1225.89 903.2 1226.64 903.2C1227.84 903.2 1228.81 903.567 1229.54 904.3C1230.29 905.033 1230.66 906.093 1230.66 907.48V914H1228.42V908.16C1228.42 906.2 1227.61 905.22 1225.98 905.22C1225.21 905.22 1224.53 905.48 1223.96 906C1223.39 906.507 1223.1 907.253 1223.1 908.24ZM1236.23 914H1233.99V903.36H1236.23V914ZM1234.13 901.24C1233.85 900.96 1233.71 900.627 1233.71 900.24C1233.71 899.853 1233.85 899.52 1234.13 899.24C1234.41 898.96 1234.74 898.82 1235.13 898.82C1235.52 898.82 1235.85 898.96 1236.13 899.24C1236.41 899.52 1236.55 899.853 1236.55 900.24C1236.55 900.627 1236.41 900.96 1236.13 901.24C1235.85 901.52 1235.52 901.66 1235.13 901.66C1234.74 901.66 1234.41 901.52 1234.13 901.24ZM1241.92 908.24V914H1239.68V903.36H1241.92V905.3C1242.28 904.647 1242.77 904.133 1243.4 903.76C1244.04 903.387 1244.73 903.2 1245.46 903.2C1246.66 903.2 1247.63 903.567 1248.36 904.3C1249.11 905.033 1249.48 906.093 1249.48 907.48V914H1247.24V908.16C1247.24 906.2 1246.43 905.22 1244.8 905.22C1244.03 905.22 1243.35 905.48 1242.78 906C1242.21 906.507 1241.92 907.253 1241.92 908.24ZM1262.65 903.36V912.64C1262.65 914.52 1262.13 915.927 1261.11 916.86C1260.09 917.807 1258.79 918.28 1257.19 918.28C1255.59 918.28 1254.14 917.78 1252.85 916.78L1253.91 915.08C1254.95 915.867 1255.99 916.26 1257.05 916.26C1258.11 916.26 1258.95 915.987 1259.57 915.44C1260.19 914.893 1260.51 914.02 1260.51 912.82V911.46C1260.17 912.087 1259.69 912.587 1259.07 912.96C1258.45 913.333 1257.76 913.52 1256.99 913.52C1255.57 913.52 1254.41 913.027 1253.51 912.04C1252.6 911.053 1252.15 909.827 1252.15 908.36C1252.15 906.893 1252.6 905.667 1253.51 904.68C1254.41 903.693 1255.57 903.2 1256.97 903.2C1258.38 903.2 1259.53 903.78 1260.41 904.94V903.36H1262.65ZM1254.35 908.28C1254.35 909.147 1254.61 909.9 1255.15 910.54C1255.69 911.167 1256.42 911.48 1257.33 911.48C1258.25 911.48 1258.99 911.173 1259.55 910.56C1260.12 909.947 1260.41 909.187 1260.41 908.28C1260.41 907.36 1260.12 906.587 1259.55 905.96C1258.97 905.32 1258.23 905 1257.33 905C1256.42 905 1255.69 905.327 1255.15 905.98C1254.61 906.633 1254.35 907.4 1254.35 908.28ZM1273.67 910.82C1273.67 911.833 1273.31 912.647 1272.57 913.26C1271.84 913.86 1270.9 914.16 1269.75 914.16C1268.98 914.16 1268.17 914.02 1267.33 913.74C1266.51 913.46 1265.77 913.067 1265.13 912.56L1266.21 910.82C1267.45 911.753 1268.65 912.22 1269.81 912.22C1270.32 912.22 1270.72 912.107 1271.01 911.88C1271.31 911.64 1271.45 911.34 1271.45 910.98C1271.45 910.447 1270.75 909.967 1269.33 909.54C1269.23 909.5 1269.15 909.473 1269.09 909.46C1266.88 908.86 1265.77 907.86 1265.77 906.46C1265.77 905.473 1266.15 904.687 1266.91 904.1C1267.69 903.5 1268.69 903.2 1269.91 903.2C1271.14 903.2 1272.3 903.56 1273.39 904.28L1272.55 905.94C1271.69 905.367 1270.75 905.08 1269.73 905.08C1269.2 905.08 1268.77 905.18 1268.43 905.38C1268.1 905.567 1267.93 905.853 1267.93 906.24C1267.93 906.587 1268.11 906.84 1268.45 907C1268.69 907.12 1269.03 907.233 1269.45 907.34C1269.89 907.447 1270.28 907.553 1270.61 907.66C1270.95 907.767 1271.27 907.887 1271.57 908.02C1271.89 908.153 1272.23 908.34 1272.59 908.58C1273.31 909.06 1273.67 909.807 1273.67 910.82ZM1284.58 911.2C1285.22 911.84 1286.03 912.16 1287 912.16C1287.97 912.16 1288.77 911.84 1289.4 911.2C1290.04 910.547 1290.36 909.707 1290.36 908.68C1290.36 907.653 1290.04 906.82 1289.4 906.18C1288.77 905.527 1287.97 905.2 1287 905.2C1286.03 905.2 1285.22 905.527 1284.58 906.18C1283.95 906.82 1283.64 907.653 1283.64 908.68C1283.64 909.707 1283.95 910.547 1284.58 911.2ZM1291 912.58C1289.93 913.633 1288.6 914.16 1287 914.16C1285.4 914.16 1284.07 913.633 1283 912.58C1281.93 911.513 1281.4 910.213 1281.4 908.68C1281.4 907.147 1281.93 905.853 1283 904.8C1284.07 903.733 1285.4 903.2 1287 903.2C1288.6 903.2 1289.93 903.733 1291 904.8C1292.07 905.853 1292.6 907.147 1292.6 908.68C1292.6 910.213 1292.07 911.513 1291 912.58ZM1297.59 908.24V914H1295.35V903.36H1297.59V905.3C1297.95 904.647 1298.44 904.133 1299.07 903.76C1299.71 903.387 1300.39 903.2 1301.13 903.2C1302.33 903.2 1303.29 903.567 1304.03 904.3C1304.77 905.033 1305.15 906.093 1305.15 907.48V914H1302.91V908.16C1302.91 906.2 1302.09 905.22 1300.47 905.22C1299.69 905.22 1299.02 905.48 1298.45 906C1297.87 906.507 1297.59 907.253 1297.59 908.24ZM1322.78 914H1320.74V912.58C1319.86 913.633 1318.68 914.16 1317.2 914.16C1316.1 914.16 1315.18 913.847 1314.44 913.22C1313.72 912.593 1313.36 911.76 1313.36 910.72C1313.36 909.667 1313.75 908.88 1314.52 908.36C1315.3 907.84 1316.34 907.58 1317.66 907.58H1320.56V907.18C1320.56 905.767 1319.78 905.06 1318.2 905.06C1317.22 905.06 1316.19 905.42 1315.12 906.14L1314.12 904.74C1315.42 903.713 1316.88 903.2 1318.52 903.2C1319.78 903.2 1320.8 903.52 1321.58 904.16C1322.38 904.787 1322.78 905.78 1322.78 907.14V914ZM1320.54 910.04V909.14H1318.02C1316.41 909.14 1315.6 909.647 1315.6 910.66C1315.6 911.18 1315.8 911.58 1316.2 911.86C1316.6 912.127 1317.16 912.26 1317.86 912.26C1318.58 912.26 1319.21 912.06 1319.74 911.66C1320.28 911.26 1320.54 910.72 1320.54 910.04ZM887.971 940.82C887.971 941.833 887.604 942.647 886.871 943.26C886.138 943.86 885.198 944.16 884.051 944.16C883.278 944.16 882.471 944.02 881.631 943.74C880.804 943.46 880.071 943.067 879.431 942.56L880.511 940.82C881.751 941.753 882.951 942.22 884.111 942.22C884.618 942.22 885.018 942.107 885.311 941.88C885.604 941.64 885.751 941.34 885.751 940.98C885.751 940.447 885.044 939.967 883.631 939.54C883.524 939.5 883.444 939.473 883.391 939.46C881.178 938.86 880.071 937.86 880.071 936.46C880.071 935.473 880.451 934.687 881.211 934.1C881.984 933.5 882.984 933.2 884.211 933.2C885.438 933.2 886.598 933.56 887.691 934.28L886.851 935.94C885.984 935.367 885.044 935.08 884.031 935.08C883.498 935.08 883.064 935.18 882.731 935.38C882.398 935.567 882.231 935.853 882.231 936.24C882.231 936.587 882.404 936.84 882.751 937C882.991 937.12 883.324 937.233 883.751 937.34C884.191 937.447 884.578 937.553 884.911 937.66C885.244 937.767 885.564 937.887 885.871 938.02C886.191 938.153 886.531 938.34 886.891 938.58C887.611 939.06 887.971 939.807 887.971 940.82ZM892.948 938.24V944H890.708V933.36H892.948V935.3C893.268 934.647 893.748 934.133 894.388 933.76C895.042 933.387 895.742 933.2 896.488 933.2C898.168 933.2 899.308 933.893 899.908 935.28C900.962 933.893 902.275 933.2 903.848 933.2C905.048 933.2 906.015 933.567 906.748 934.3C907.495 935.033 907.868 936.093 907.868 937.48V944H905.628V938.16C905.628 936.2 904.815 935.22 903.188 935.22C902.428 935.22 901.762 935.467 901.188 935.96C900.628 936.44 900.335 937.147 900.308 938.08V944H898.068V938.16C898.068 937.147 897.888 936.407 897.528 935.94C897.168 935.46 896.602 935.22 895.828 935.22C895.055 935.22 894.382 935.48 893.808 936C893.235 936.507 892.948 937.253 892.948 938.24ZM919.802 944H917.762V942.58C916.882 943.633 915.702 944.16 914.222 944.16C913.115 944.16 912.195 943.847 911.462 943.22C910.742 942.593 910.382 941.76 910.382 940.72C910.382 939.667 910.768 938.88 911.542 938.36C912.315 937.84 913.362 937.58 914.682 937.58H917.582V937.18C917.582 935.767 916.795 935.06 915.222 935.06C914.235 935.06 913.208 935.42 912.142 936.14L911.142 934.74C912.435 933.713 913.902 933.2 915.542 933.2C916.795 933.2 917.815 933.52 918.602 934.16C919.402 934.787 919.802 935.78 919.802 937.14V944ZM917.562 940.04V939.14H915.042C913.428 939.14 912.622 939.647 912.622 940.66C912.622 941.18 912.822 941.58 913.222 941.86C913.622 942.127 914.175 942.26 914.882 942.26C915.602 942.26 916.228 942.06 916.762 941.66C917.295 941.26 917.562 940.72 917.562 940.04ZM925.36 944H923.12V929.16H925.36V944ZM931.048 944H928.808V929.16H931.048V944ZM947.765 940.82C947.765 941.833 947.398 942.647 946.665 943.26C945.932 943.86 944.992 944.16 943.845 944.16C943.072 944.16 942.265 944.02 941.425 943.74C940.598 943.46 939.865 943.067 939.225 942.56L940.305 940.82C941.545 941.753 942.745 942.22 943.905 942.22C944.412 942.22 944.812 942.107 945.105 941.88C945.398 941.64 945.545 941.34 945.545 940.98C945.545 940.447 944.838 939.967 943.425 939.54C943.318 939.5 943.238 939.473 943.185 939.46C940.972 938.86 939.865 937.86 939.865 936.46C939.865 935.473 940.245 934.687 941.005 934.1C941.778 933.5 942.778 933.2 944.005 933.2C945.232 933.2 946.392 933.56 947.485 934.28L946.645 935.94C945.778 935.367 944.838 935.08 943.825 935.08C943.292 935.08 942.858 935.18 942.525 935.38C942.192 935.567 942.025 935.853 942.025 936.24C942.025 936.587 942.198 936.84 942.545 937C942.785 937.12 943.118 937.233 943.545 937.34C943.985 937.447 944.372 937.553 944.705 937.66C945.038 937.767 945.358 937.887 945.665 938.02C945.985 938.153 946.325 938.34 946.685 938.58C947.405 939.06 947.765 939.807 947.765 940.82ZM955.222 944.16C953.742 944.16 952.469 943.66 951.402 942.66C950.335 941.647 949.802 940.327 949.802 938.7C949.802 937.073 950.355 935.753 951.462 934.74C952.582 933.713 953.942 933.2 955.542 933.2C957.142 933.2 958.495 933.753 959.602 934.86L958.282 936.48C957.362 935.68 956.435 935.28 955.502 935.28C954.569 935.28 953.755 935.593 953.062 936.22C952.382 936.833 952.042 937.633 952.042 938.62C952.042 939.593 952.382 940.42 953.062 941.1C953.742 941.78 954.575 942.12 955.562 942.12C956.562 942.12 957.502 941.667 958.382 940.76L959.702 942.2C958.409 943.507 956.915 944.16 955.222 944.16ZM970.767 944H968.727V942.58C967.847 943.633 966.667 944.16 965.187 944.16C964.081 944.16 963.161 943.847 962.427 943.22C961.707 942.593 961.347 941.76 961.347 940.72C961.347 939.667 961.734 938.88 962.507 938.36C963.281 937.84 964.327 937.58 965.647 937.58H968.547V937.18C968.547 935.767 967.761 935.06 966.187 935.06C965.201 935.06 964.174 935.42 963.107 936.14L962.107 934.74C963.401 933.713 964.867 933.2 966.507 933.2C967.761 933.2 968.781 933.52 969.567 934.16C970.367 934.787 970.767 935.78 970.767 937.14V944ZM968.527 940.04V939.14H966.007C964.394 939.14 963.587 939.647 963.587 940.66C963.587 941.18 963.787 941.58 964.187 941.86C964.587 942.127 965.141 942.26 965.847 942.26C966.567 942.26 967.194 942.06 967.727 941.66C968.261 941.26 968.527 940.72 968.527 940.04ZM976.326 944H974.086V929.16H976.326V944ZM989.674 939.66H981.334C981.387 940.433 981.741 941.06 982.394 941.54C983.047 942.007 983.794 942.24 984.634 942.24C985.967 942.24 986.981 941.82 987.674 940.98L988.954 942.38C987.807 943.567 986.314 944.16 984.474 944.16C982.981 944.16 981.707 943.667 980.654 942.68C979.614 941.68 979.094 940.347 979.094 938.68C979.094 937 979.627 935.667 980.694 934.68C981.761 933.693 983.014 933.2 984.454 933.2C985.907 933.2 987.141 933.64 988.154 934.52C989.167 935.387 989.674 936.587 989.674 938.12V939.66ZM981.334 937.9H987.434C987.434 937.007 987.154 936.32 986.594 935.84C986.034 935.36 985.341 935.12 984.514 935.12C983.701 935.12 982.967 935.373 982.314 935.88C981.661 936.373 981.334 937.047 981.334 937.9ZM998.025 944.5V933.36H1000.27V944.58C1000.27 945.7 999.925 946.587 999.245 947.24C998.579 947.907 997.765 948.24 996.805 948.24C995.859 948.24 994.992 947.887 994.205 947.18L995.245 945.5C995.699 945.94 996.152 946.16 996.605 946.16C997.072 946.16 997.425 946.013 997.665 945.72C997.905 945.427 998.025 945.02 998.025 944.5ZM998.125 931.24C997.845 930.96 997.705 930.627 997.705 930.24C997.705 929.853 997.845 929.52 998.125 929.24C998.405 928.96 998.739 928.82 999.125 928.82C999.512 928.82 999.845 928.96 1000.13 929.24C1000.41 929.52 1000.55 929.853 1000.55 930.24C1000.55 930.627 1000.41 930.96 1000.13 931.24C999.845 931.52 999.512 931.66 999.125 931.66C998.739 931.66 998.405 931.52 998.125 931.24ZM1011.15 939.12V933.36H1013.39V944H1011.15V942.06C1010.79 942.713 1010.29 943.227 1009.65 943.6C1009.03 943.973 1008.35 944.16 1007.61 944.16C1006.41 944.16 1005.44 943.793 1004.69 943.06C1003.96 942.327 1003.59 941.267 1003.59 939.88V933.36H1005.83V939.2C1005.83 941.16 1006.65 942.14 1008.27 942.14C1009.05 942.14 1009.72 941.887 1010.29 941.38C1010.87 940.86 1011.15 940.107 1011.15 939.12ZM1024.42 940.82C1024.42 941.833 1024.06 942.647 1023.32 943.26C1022.59 943.86 1021.65 944.16 1020.5 944.16C1019.73 944.16 1018.92 944.02 1018.08 943.74C1017.26 943.46 1016.52 943.067 1015.88 942.56L1016.96 940.82C1018.2 941.753 1019.4 942.22 1020.56 942.22C1021.07 942.22 1021.47 942.107 1021.76 941.88C1022.06 941.64 1022.2 941.34 1022.2 940.98C1022.2 940.447 1021.5 939.967 1020.08 939.54C1019.98 939.5 1019.9 939.473 1019.84 939.46C1017.63 938.86 1016.52 937.86 1016.52 936.46C1016.52 935.473 1016.9 934.687 1017.66 934.1C1018.44 933.5 1019.44 933.2 1020.66 933.2C1021.89 933.2 1023.05 933.56 1024.14 934.28L1023.3 935.94C1022.44 935.367 1021.5 935.08 1020.48 935.08C1019.95 935.08 1019.52 935.18 1019.18 935.38C1018.85 935.567 1018.68 935.853 1018.68 936.24C1018.68 936.587 1018.86 936.84 1019.2 937C1019.44 937.12 1019.78 937.233 1020.2 937.34C1020.64 937.447 1021.03 937.553 1021.36 937.66C1021.7 937.767 1022.02 937.887 1022.32 938.02C1022.64 938.153 1022.98 938.34 1023.34 938.58C1024.06 939.06 1024.42 939.807 1024.42 940.82ZM1029.92 935.16V940.56C1029.92 941.067 1030.05 941.473 1030.32 941.78C1030.59 942.073 1030.96 942.22 1031.44 942.22C1031.92 942.22 1032.38 941.987 1032.82 941.52L1033.74 943.1C1032.95 943.807 1032.08 944.16 1031.12 944.16C1030.17 944.16 1029.36 943.833 1028.68 943.18C1028.01 942.513 1027.68 941.62 1027.68 940.5V935.16H1026.34V933.36H1027.68V930.02H1029.92V933.36H1032.72V935.16H1029.92ZM1045.75 944.16C1044.4 944.16 1043.23 943.653 1042.23 942.64C1041.23 941.627 1040.73 940.293 1040.73 938.64C1040.73 936.987 1041.24 935.667 1042.27 934.68C1043.29 933.693 1044.51 933.2 1045.93 933.2C1047.35 933.2 1048.5 933.8 1049.37 935V929.16H1051.61V944H1049.37V942.4C1048.54 943.573 1047.33 944.16 1045.75 944.16ZM1042.97 938.74C1042.97 939.753 1043.29 940.58 1043.95 941.22C1044.6 941.86 1045.37 942.18 1046.25 942.18C1047.13 942.18 1047.87 941.86 1048.49 941.22C1049.1 940.567 1049.41 939.733 1049.41 938.72C1049.41 937.707 1049.1 936.86 1048.49 936.18C1047.87 935.5 1047.12 935.16 1046.23 935.16C1045.33 935.16 1044.57 935.5 1043.93 936.18C1043.29 936.86 1042.97 937.713 1042.97 938.74ZM1057.53 941.2C1058.17 941.84 1058.97 942.16 1059.95 942.16C1060.92 942.16 1061.72 941.84 1062.35 941.2C1062.99 940.547 1063.31 939.707 1063.31 938.68C1063.31 937.653 1062.99 936.82 1062.35 936.18C1061.72 935.527 1060.92 935.2 1059.95 935.2C1058.97 935.2 1058.17 935.527 1057.53 936.18C1056.9 936.82 1056.59 937.653 1056.59 938.68C1056.59 939.707 1056.9 940.547 1057.53 941.2ZM1063.95 942.58C1062.88 943.633 1061.55 944.16 1059.95 944.16C1058.35 944.16 1057.01 943.633 1055.95 942.58C1054.88 941.513 1054.35 940.213 1054.35 938.68C1054.35 937.147 1054.88 935.853 1055.95 934.8C1057.01 933.733 1058.35 933.2 1059.95 933.2C1061.55 933.2 1062.88 933.733 1063.95 934.8C1065.01 935.853 1065.55 937.147 1065.55 938.68C1065.55 940.213 1065.01 941.513 1063.95 942.58ZM1076.22 938.24V944H1073.98V933.36H1076.22V935.3C1076.58 934.647 1077.07 934.133 1077.7 933.76C1078.34 933.387 1079.03 933.2 1079.76 933.2C1080.96 933.2 1081.93 933.567 1082.66 934.3C1083.41 935.033 1083.78 936.093 1083.78 937.48V944H1081.54V938.16C1081.54 936.2 1080.73 935.22 1079.1 935.22C1078.33 935.22 1077.65 935.48 1077.08 936C1076.51 936.507 1076.22 937.253 1076.22 938.24ZM1089.59 941.2C1090.23 941.84 1091.04 942.16 1092.01 942.16C1092.98 942.16 1093.78 941.84 1094.41 941.2C1095.05 940.547 1095.37 939.707 1095.37 938.68C1095.37 937.653 1095.05 936.82 1094.41 936.18C1093.78 935.527 1092.98 935.2 1092.01 935.2C1091.04 935.2 1090.23 935.527 1089.59 936.18C1088.96 936.82 1088.65 937.653 1088.65 938.68C1088.65 939.707 1088.96 940.547 1089.59 941.2ZM1096.01 942.58C1094.94 943.633 1093.61 944.16 1092.01 944.16C1090.41 944.16 1089.08 943.633 1088.01 942.58C1086.94 941.513 1086.41 940.213 1086.41 938.68C1086.41 937.147 1086.94 935.853 1088.01 934.8C1089.08 933.733 1090.41 933.2 1092.01 933.2C1093.61 933.2 1094.94 933.733 1096.01 934.8C1097.08 935.853 1097.61 937.147 1097.61 938.68C1097.61 940.213 1097.08 941.513 1096.01 942.58ZM1102.96 935.16V940.56C1102.96 941.067 1103.09 941.473 1103.36 941.78C1103.63 942.073 1104 942.22 1104.48 942.22C1104.96 942.22 1105.42 941.987 1105.86 941.52L1106.78 943.1C1105.99 943.807 1105.12 944.16 1104.16 944.16C1103.21 944.16 1102.4 943.833 1101.72 943.18C1101.05 942.513 1100.72 941.62 1100.72 940.5V935.16H1099.38V933.36H1100.72V930.02H1102.96V933.36H1105.76V935.16H1102.96ZM1123.07 944H1121.03V942.58C1120.15 943.633 1118.97 944.16 1117.49 944.16C1116.38 944.16 1115.46 943.847 1114.73 943.22C1114.01 942.593 1113.65 941.76 1113.65 940.72C1113.65 939.667 1114.04 938.88 1114.81 938.36C1115.58 937.84 1116.63 937.58 1117.95 937.58H1120.85V937.18C1120.85 935.767 1120.06 935.06 1118.49 935.06C1117.5 935.06 1116.48 935.42 1115.41 936.14L1114.41 934.74C1115.7 933.713 1117.17 933.2 1118.81 933.2C1120.06 933.2 1121.08 933.52 1121.87 934.16C1122.67 934.787 1123.07 935.78 1123.07 937.14V944ZM1120.83 940.04V939.14H1118.31C1116.7 939.14 1115.89 939.647 1115.89 940.66C1115.89 941.18 1116.09 941.58 1116.49 941.86C1116.89 942.127 1117.44 942.26 1118.15 942.26C1118.87 942.26 1119.5 942.06 1120.03 941.66C1120.56 941.26 1120.83 940.72 1120.83 940.04ZM1131.11 944.16C1129.63 944.16 1128.35 943.66 1127.29 942.66C1126.22 941.647 1125.69 940.327 1125.69 938.7C1125.69 937.073 1126.24 935.753 1127.35 934.74C1128.47 933.713 1129.83 933.2 1131.43 933.2C1133.03 933.2 1134.38 933.753 1135.49 934.86L1134.17 936.48C1133.25 935.68 1132.32 935.28 1131.39 935.28C1130.45 935.28 1129.64 935.593 1128.95 936.22C1128.27 936.833 1127.93 937.633 1127.93 938.62C1127.93 939.593 1128.27 940.42 1128.95 941.1C1129.63 941.78 1130.46 942.12 1131.45 942.12C1132.45 942.12 1133.39 941.667 1134.27 940.76L1135.59 942.2C1134.29 943.507 1132.8 944.16 1131.11 944.16ZM1140.87 935.16V940.56C1140.87 941.067 1141 941.473 1141.27 941.78C1141.54 942.073 1141.91 942.22 1142.39 942.22C1142.87 942.22 1143.33 941.987 1143.77 941.52L1144.69 943.1C1143.9 943.807 1143.03 944.16 1142.07 944.16C1141.12 944.16 1140.31 943.833 1139.63 943.18C1138.96 942.513 1138.63 941.62 1138.63 940.5V935.16H1137.29V933.36H1138.63V930.02H1140.87V933.36H1143.67V935.16H1140.87ZM1155.12 935.16V940.56C1155.12 941.067 1155.25 941.473 1155.52 941.78C1155.78 942.073 1156.16 942.22 1156.64 942.22C1157.12 942.22 1157.58 941.987 1158.02 941.52L1158.94 943.1C1158.15 943.807 1157.28 944.16 1156.32 944.16C1155.37 944.16 1154.56 943.833 1153.88 943.18C1153.21 942.513 1152.88 941.62 1152.88 940.5V935.16H1151.54V933.36H1152.88V930.02H1155.12V933.36H1157.92V935.16H1155.12ZM1163.16 938.24V944H1160.92V929.18H1163.16V935.3C1163.48 934.647 1163.96 934.133 1164.6 933.76C1165.25 933.387 1165.95 933.2 1166.7 933.2C1167.9 933.2 1168.86 933.567 1169.6 934.3C1170.34 935.033 1170.72 936.093 1170.72 937.48V944H1168.48V938.16C1168.48 936.2 1167.66 935.22 1166.04 935.22C1165.26 935.22 1164.59 935.48 1164.02 936C1163.44 936.507 1163.16 937.253 1163.16 938.24ZM1182.67 944H1180.63V942.58C1179.75 943.633 1178.57 944.16 1177.09 944.16C1175.98 944.16 1175.06 943.847 1174.33 943.22C1173.61 942.593 1173.25 941.76 1173.25 940.72C1173.25 939.667 1173.63 938.88 1174.41 938.36C1175.18 937.84 1176.23 937.58 1177.55 937.58H1180.45V937.18C1180.45 935.767 1179.66 935.06 1178.09 935.06C1177.1 935.06 1176.07 935.42 1175.01 936.14L1174.01 934.74C1175.3 933.713 1176.77 933.2 1178.41 933.2C1179.66 933.2 1180.68 933.52 1181.47 934.16C1182.27 934.787 1182.67 935.78 1182.67 937.14V944ZM1180.43 940.04V939.14H1177.91C1176.29 939.14 1175.49 939.647 1175.49 940.66C1175.49 941.18 1175.69 941.58 1176.09 941.86C1176.49 942.127 1177.04 942.26 1177.75 942.26C1178.47 942.26 1179.09 942.06 1179.63 941.66C1180.16 941.26 1180.43 940.72 1180.43 940.04ZM1188.63 935.16V940.56C1188.63 941.067 1188.76 941.473 1189.03 941.78C1189.3 942.073 1189.67 942.22 1190.15 942.22C1190.63 942.22 1191.09 941.987 1191.53 941.52L1192.45 943.1C1191.66 943.807 1190.79 944.16 1189.83 944.16C1188.88 944.16 1188.07 943.833 1187.39 943.18C1186.72 942.513 1186.39 941.62 1186.39 940.5V935.16H1185.05V933.36H1186.39V930.02H1188.63V933.36H1191.43V935.16H1188.63ZM1205.1 944H1202.54L1198.86 933.36H1201.18L1203.82 941.4L1206.46 933.36H1208.78L1211.42 941.4L1214.06 933.36H1216.38L1212.7 944H1210.14L1207.62 936.72L1205.1 944ZM1227.08 944H1225.04V942.58C1224.16 943.633 1222.98 944.16 1221.5 944.16C1220.39 944.16 1219.47 943.847 1218.74 943.22C1218.02 942.593 1217.66 941.76 1217.66 940.72C1217.66 939.667 1218.05 938.88 1218.82 938.36C1219.59 937.84 1220.64 937.58 1221.96 937.58H1224.86V937.18C1224.86 935.767 1224.07 935.06 1222.5 935.06C1221.51 935.06 1220.49 935.42 1219.42 936.14L1218.42 934.74C1219.71 933.713 1221.18 933.2 1222.82 933.2C1224.07 933.2 1225.09 933.52 1225.88 934.16C1226.68 934.787 1227.08 935.78 1227.08 937.14V944ZM1224.84 940.04V939.14H1222.32C1220.71 939.14 1219.9 939.647 1219.9 940.66C1219.9 941.18 1220.1 941.58 1220.5 941.86C1220.9 942.127 1221.45 942.26 1222.16 942.26C1222.88 942.26 1223.51 942.06 1224.04 941.66C1224.57 941.26 1224.84 940.72 1224.84 940.04ZM1231.62 948.24C1230.65 948.24 1229.77 947.887 1228.98 947.18L1230 945.36C1230.47 945.8 1230.95 946.02 1231.44 946.02C1231.95 946.02 1232.36 945.84 1232.66 945.48C1232.98 945.12 1233.14 944.727 1233.14 944.3C1233.14 944.113 1231.71 940.467 1228.84 933.36H1231.24L1234.42 941.2L1237.6 933.36H1240L1234.84 946C1234.54 946.693 1234.1 947.24 1233.52 947.64C1232.95 948.04 1232.32 948.24 1231.62 948.24ZM1241.36 943.72C1241.08 943.427 1240.94 943.073 1240.94 942.66C1240.94 942.247 1241.08 941.9 1241.36 941.62C1241.66 941.327 1242.01 941.18 1242.42 941.18C1242.84 941.18 1243.19 941.327 1243.48 941.62C1243.78 941.9 1243.92 942.247 1243.92 942.66C1243.92 943.073 1243.78 943.427 1243.48 943.72C1243.19 944.013 1242.84 944.16 1242.42 944.16C1242.01 944.16 1241.66 944.013 1241.36 943.72Z" fill="white"/>
</g>
</g>
<defs>
<filter id="filter0_d_1_72" x="-4" y="0" width="1448" height="912" filterUnits="userSpaceOnUse" color-interpolation-filters="sRGB">
<feFlood flood-opacity="0" result="BackgroundImageFix"/>
<feColorMatrix in="SourceAlpha" type="matrix" values="0 0 0 0 0 0 0 0 0 0 0 0 0 0 0 0 0 0 127 0" result="hardAlpha"/>
<feOffset dy="4"/>
<feGaussianBlur stdDeviation="2"/>
<feComposite in2="hardAlpha" operator="out"/>
<feColorMatrix type="matrix" values="0 0 0 0 0 0 0 0 0 0 0 0 0 0 0 0 0 0 0.25 0"/>
<feBlend mode="normal" in2="BackgroundImageFix" result="effect1_dropShadow_1_72"/>
<feBlend mode="normal" in="SourceGraphic" in2="effect1_dropShadow_1_72" result="shape"/>
</filter>
<clipPath id="clip0_1_72">
<rect width="1440" height="904" fill="white"/>
</clipPath>
<clipPath id="clip1_1_72">
<rect width="1322" height="91" fill="white" transform="translate(59)"/>
</clipPath>
<clipPath id="clip2_1_72">
<rect width="275" height="24" fill="white" transform="translate(423 33)"/>
</clipPath>
<clipPath id="clip3_1_72">
<rect width="43" height="24" fill="white" transform="translate(423 33)"/>
</clipPath>
<clipPath id="clip4_1_72">
<rect width="43" height="24" fill="white" transform="translate(423 33)"/>
</clipPath>
<clipPath id="clip5_1_72">
<rect width="59" height="24" fill="white" transform="translate(487 33)"/>
</clipPath>
<clipPath id="clip6_1_72">
<rect width="59" height="24" fill="white" transform="translate(487 33)"/>
</clipPath>
<clipPath id="clip7_1_72">
<rect width="52" height="24" fill="white" transform="translate(567 33)"/>
</clipPath>
<clipPath id="clip8_1_72">
<rect width="52" height="24" fill="white" transform="translate(567 33)"/>
</clipPath>
<clipPath id="clip9_1_72">
<rect width="58" height="24" fill="white" transform="translate(640 33)"/>
</clipPath>
<clipPath id="clip10_1_72">
<rect width="58" height="24" fill="white" transform="translate(640 33)"/>
</clipPath>
<clipPath id="clip11_1_72">
<rect width="41" height="22" fill="white" transform="translate(938 34)"/>
</clipPath>
<clipPath id="clip12_1_72">
<rect width="41" height="22" fill="white" transform="translate(938 34)"/>
</clipPath>
<clipPath id="clip13_1_72">
<rect width="12" height="10" fill="white" transform="translate(1124 40)"/>
</clipPath>
<clipPath id="clip14_1_72">
<rect width="686" height="496" fill="white" transform="translate(719 588)"/>
</clipPath>
</defs>
</svg>
