<svg width="32" height="32" viewBox="0 0 32 32" fill="none" xmlns="http://www.w3.org/2000/svg">
<path d="M16 28.0001C14.3159 26.5636 12.7549 24.9888 11.3333 23.2921C9.19996 20.7441 6.66663 16.9494 6.66663 13.3334C6.66474 9.5568 8.93896 6.15125 12.4281 4.70593C15.9171 3.26061 19.9334 4.06039 22.6026 6.73207C24.3579 8.47954 25.3412 10.8566 25.3333 13.3334C25.3333 16.9494 22.8 20.7441 20.6666 23.2921C19.245 24.9888 17.6841 26.5636 16 28.0001ZM16 9.3334C14.5709 9.3334 13.2504 10.0958 12.5359 11.3334C11.8213 12.571 11.8213 14.0958 12.5359 15.3334C13.2504 16.571 14.5709 17.3334 16 17.3334C18.2091 17.3334 20 15.5425 20 13.3334C20 11.1243 18.2091 9.3334 16 9.3334Z" fill="white"/>
</svg>
