<svg width="132" height="23" viewBox="0 0 132 23" fill="none" xmlns="http://www.w3.org/2000/svg">
<g clip-path="url(#clip0_1_377)">
<path d="M21.0968 8.41964C21.0391 8.24983 20.933 8.10061 20.7915 7.99043C20.65 7.88024 20.4794 7.81389 20.3006 7.79959L15.0714 7.38408L12.8086 2.37506C12.7366 2.21373 12.6193 2.07671 12.4711 1.98052C12.3229 1.88434 12.15 1.8331 11.9733 1.83301C11.7966 1.83291 11.6237 1.88395 11.4754 1.97998C11.327 2.076 11.2097 2.2129 11.1374 2.37415L8.87461 7.38408L3.64546 7.79959C3.46976 7.8135 3.3018 7.87774 3.16167 7.98462C3.02153 8.0915 2.91515 8.23648 2.85525 8.40224C2.79536 8.56799 2.78448 8.74749 2.82393 8.91926C2.86338 9.09103 2.95148 9.2478 3.07769 9.37081L6.942 13.1379L5.57532 19.0559C5.53382 19.235 5.54712 19.4225 5.61349 19.594C5.67986 19.7655 5.79625 19.913 5.94753 20.0175C6.09882 20.1221 6.27803 20.1787 6.4619 20.1801C6.64577 20.1815 6.82582 20.1276 6.97868 20.0254L11.973 16.6958L16.9674 20.0254C17.1236 20.1291 17.3079 20.1825 17.4954 20.1784C17.6828 20.1743 17.8646 20.1129 18.0161 20.0024C18.1677 19.8919 18.2817 19.7377 18.343 19.5604C18.4043 19.3832 18.4098 19.1914 18.3588 19.0109L16.6812 13.1406L20.8418 9.39649C21.1142 9.15067 21.2142 8.76727 21.0968 8.41964Z" fill="#F3CD03"/>
<path d="M48.1116 8.41964C48.054 8.24983 47.9479 8.10061 47.8064 7.99043C47.6649 7.88024 47.4942 7.81389 47.3155 7.79959L42.0863 7.38408L39.8235 2.37506C39.7515 2.21373 39.6342 2.07671 39.486 1.98052C39.3378 1.88434 39.1649 1.8331 38.9882 1.83301C38.8115 1.83291 38.6386 1.88395 38.4902 1.97998C38.3419 2.076 38.2246 2.2129 38.1523 2.37415L35.8895 7.38408L30.6603 7.79959C30.4847 7.8135 30.3167 7.87774 30.1766 7.98462C30.0364 8.0915 29.93 8.23648 29.8701 8.40224C29.8102 8.56799 29.7994 8.74749 29.8388 8.91926C29.8783 9.09103 29.9664 9.2478 30.0926 9.37081L33.9569 13.1379L32.5902 19.0559C32.5487 19.235 32.562 19.4225 32.6284 19.594C32.6948 19.7655 32.8111 19.913 32.9624 20.0175C33.1137 20.1221 33.2929 20.1787 33.4768 20.1801C33.6607 20.1815 33.8407 20.1276 33.9936 20.0254L38.9879 16.6958L43.9823 20.0254C44.1385 20.1291 44.3228 20.1825 44.5102 20.1784C44.6977 20.1743 44.8795 20.1129 45.031 20.0024C45.1826 19.8919 45.2966 19.7377 45.3579 19.5604C45.4192 19.3832 45.4247 19.1914 45.3737 19.0109L43.6961 13.1406L47.8567 9.39649C48.1291 9.15067 48.2291 8.76727 48.1116 8.41964Z" fill="#F3CD03"/>
<path d="M75.1226 8.41964C75.065 8.24983 74.9589 8.10061 74.8174 7.99043C74.6759 7.88024 74.5052 7.81389 74.3265 7.79959L69.0973 7.38408L66.8345 2.37506C66.7624 2.21373 66.6452 2.07671 66.497 1.98052C66.3488 1.88434 66.1759 1.8331 65.9992 1.83301C65.8225 1.83291 65.6496 1.88395 65.5012 1.97998C65.3529 2.076 65.2355 2.2129 65.1633 2.37415L62.9005 7.38408L57.6713 7.79959C57.4956 7.8135 57.3277 7.87774 57.1875 7.98462C57.0474 8.0915 56.941 8.23648 56.8811 8.40224C56.8212 8.56799 56.8104 8.74749 56.8498 8.91926C56.8893 9.09103 56.9774 9.2478 57.1036 9.37081L60.9679 13.1379L59.6012 19.0559C59.5597 19.235 59.573 19.4225 59.6394 19.594C59.7057 19.7655 59.8221 19.913 59.9734 20.0175C60.1247 20.1221 60.3039 20.1787 60.4878 20.1801C60.6717 20.1815 60.8517 20.1276 61.0046 20.0254L65.9989 16.6958L70.9932 20.0254C71.1495 20.1291 71.3337 20.1825 71.5212 20.1784C71.7087 20.1743 71.8905 20.1129 72.042 20.0024C72.1935 19.8919 72.3076 19.7377 72.3689 19.5604C72.4301 19.3832 72.4357 19.1914 72.3847 19.0109L70.7071 13.1406L74.8676 9.39649C75.1401 9.15067 75.24 8.76727 75.1226 8.41964Z" fill="#F3CD03"/>
<path d="M102.137 8.41964C102.079 8.24983 101.973 8.10061 101.831 7.99043C101.69 7.88024 101.519 7.81389 101.341 7.79959L96.1114 7.38408L93.8485 2.37506C93.7765 2.21373 93.6593 2.07671 93.511 1.98052C93.3628 1.88434 93.1899 1.8331 93.0132 1.83301C92.8365 1.83291 92.6636 1.88395 92.5153 1.97998C92.3669 2.076 92.2496 2.2129 92.1773 2.37415L89.9145 7.38408L84.6854 7.79959C84.5097 7.8135 84.3417 7.87774 84.2016 7.98462C84.0614 8.0915 83.9551 8.23648 83.8952 8.40224C83.8353 8.56799 83.8244 8.74749 83.8638 8.91926C83.9033 9.09103 83.9914 9.2478 84.1176 9.37081L87.9819 13.1379L86.6152 19.0559C86.5737 19.235 86.587 19.4225 86.6534 19.594C86.7198 19.7655 86.8362 19.913 86.9874 20.0175C87.1387 20.1221 87.3179 20.1787 87.5018 20.1801C87.6857 20.1815 87.8657 20.1276 88.0186 20.0254L93.0129 16.6958L98.0073 20.0254C98.1635 20.1291 98.3478 20.1825 98.5353 20.1784C98.7228 20.1743 98.9045 20.1129 99.056 20.0024C99.2076 19.8919 99.3217 19.7377 99.3829 19.5604C99.4442 19.3832 99.4497 19.1914 99.3987 19.0109L97.7211 13.1406L101.882 9.39649C102.154 9.15067 102.254 8.76727 102.137 8.41964Z" fill="#F3CD03"/>
<path d="M114.998 13.1374L113.631 19.0554C113.589 19.2346 113.601 19.4224 113.667 19.5943C113.734 19.7662 113.85 19.9141 114.001 20.0188C114.153 20.1235 114.332 20.1801 114.516 20.1812C114.701 20.1823 114.881 20.1278 115.033 20.0249L120.028 16.6954L125.022 20.0249C125.178 20.1287 125.363 20.1821 125.55 20.178C125.738 20.1739 125.919 20.1124 126.071 20.0019C126.222 19.8915 126.337 19.7372 126.398 19.56C126.459 19.3827 126.465 19.191 126.414 19.0105L124.736 13.1402L128.897 9.39603C129.03 9.27605 129.125 9.11963 129.17 8.94614C129.216 8.77264 129.209 8.58967 129.151 8.41986C129.094 8.25004 128.988 8.10083 128.846 7.99067C128.705 7.88051 128.534 7.81423 128.355 7.80004L123.126 7.38362L120.863 2.3746C120.791 2.21331 120.674 2.07635 120.526 1.98025C120.377 1.88415 120.205 1.83301 120.028 1.83301C119.851 1.83301 119.678 1.88415 119.53 1.98025C119.382 2.07635 119.264 2.21331 119.192 2.3746L116.929 7.38362L111.7 7.79913C111.525 7.81305 111.357 7.87729 111.216 7.98416C111.076 8.09104 110.97 8.23602 110.91 8.40178C110.85 8.56753 110.839 8.74703 110.879 8.9188C110.918 9.09057 111.006 9.24734 111.132 9.37035L114.998 13.1374ZM117.615 9.16947C117.778 9.15658 117.936 9.09987 118.07 9.0053C118.204 8.91073 118.31 8.78179 118.378 8.63198L120.028 4.98047L121.678 8.63198C121.745 8.78179 121.852 8.91073 121.986 9.0053C122.12 9.09987 122.277 9.15658 122.441 9.16947L126.084 9.4584L123.084 12.1587C122.824 12.3936 122.72 12.7549 122.815 13.0925L123.965 17.1146L120.538 14.8297C120.387 14.7288 120.21 14.6749 120.029 14.6749C119.848 14.6749 119.671 14.7288 119.521 14.8297L115.94 17.2173L116.903 13.0475C116.938 12.8942 116.933 12.7343 116.889 12.5833C116.845 12.4323 116.762 12.2953 116.65 12.1853L113.863 9.46849L117.615 9.16947Z" fill="#F3CD03"/>
</g>
<defs>
<clipPath id="clip0_1_377">
<rect width="130.068" height="22.0136" fill="white" transform="translate(0.965942)"/>
</clipPath>
</defs>
</svg>
